<?xml version="1.0" encoding="UTF-8"?>
<svg id="Layer_1" data-name="Layer 1" xmlns="http://www.w3.org/2000/svg" viewBox="0 0 2042.58 782.63">
  <defs>
    <style>
      .cls-1, .cls-2, .cls-3, .cls-4, .cls-5, .cls-6, .cls-7, .cls-8 {
        stroke: #272425;
        stroke-width: 5px;
      }

      .cls-1, .cls-2, .cls-3, .cls-4, .cls-5, .cls-7, .cls-8 {
        stroke-linecap: round;
      }

      .cls-1, .cls-2, .cls-6, .cls-9 {
        fill: #e2855e;
      }

      .cls-1, .cls-3, .cls-5, .cls-6, .cls-7 {
        stroke-linejoin: round;
      }

      .cls-2, .cls-10, .cls-4, .cls-8 {
        stroke-miterlimit: 10;
      }

      .cls-11, .cls-12, .cls-13, .cls-14, .cls-15, .cls-16, .cls-17, .cls-18, .cls-19, .cls-20, .cls-9 {
        stroke-width: 0px;
      }

      .cls-11, .cls-5 {
        fill: #e05d2f;
      }

      .cls-3, .cls-15, .cls-4 {
        fill: none;
      }

      .cls-21 {
        font-size: 45.22px;
      }

      .cls-21, .cls-22, .cls-23 {
        isolation: isolate;
      }

      .cls-21, .cls-13, .cls-23 {
        fill: #272425;
      }

      .cls-21, .cls-23 {
        font-family: ArialMT, Arial;
      }

      .cls-14 {
        fill: #f0eadc;
      }

      .cls-16 {
        fill: #ccc4b8;
      }

      .cls-17, .cls-10 {
        fill: #fff;
      }

      .cls-10 {
        stroke: #fff;
        stroke-width: 4px;
      }

      .cls-18, .cls-7, .cls-8 {
        fill: #009fbf;
      }

      .cls-23 {
        font-size: 28.56px;
      }

      .cls-19 {
        fill: #e78c65;
      }

      .cls-24 {
        letter-spacing: -.02em;
      }

      .cls-25 {
        letter-spacing: -.07em;
      }

      .cls-20 {
        fill: #bc8282;
      }

      .cls-26 {
        letter-spacing: -.07em;
      }
    </style>
  </defs>
  <g>
    <rect class="cls-15" x="1441.94" y="108.51" width="588" height="32.13"/>
    <g class="cls-22">
      <text class="cls-21" transform="translate(1486.4 140.16)"><tspan x="0" y="0">C</tspan><tspan class="cls-25" x="32.66" y="0">A</tspan><tspan x="59.46" y="0">TS EMOJI COLLEC</tspan></text>
      <text class="cls-21" transform="translate(1967.05 140.16)"><tspan x="0" y="0">-</tspan></text>
    </g>
    <rect class="cls-15" x="1497.58" y="151.32" width="476.73" height="24.99"/>
    <text class="cls-23" transform="translate(1652.59 171.31)"><tspan x="0" y="0">FL</tspan><tspan class="cls-26" x="33.33" y="0">A</tspan><tspan class="cls-24" x="50.26" y="0">T</tspan><tspan x="67.19" y="0" xml:space="preserve"> STYLE</tspan></text>
  </g>
  <g>
    <g>
      <path class="cls-14" d="m1951.16,239.32c14.27,0,38.04,3.72,38.04,3.72,10.24-6.22,23.11-12.49,34.75-12.44,2.56,12.07,2.21,26.65-1.83,40.97,0,0,3.29,18.29,17.92,23.78,0,0-4.98,4.66-13.9,6.22,0,0,7.03,4.67,11.34,6.22-14.74,11.3-36.95,40.31-86.33,40.31s-76.16-33.03-86.33-40.31c4.3-1.55,11.34-6.22,11.34-6.22-8.92-1.55-13.9-6.22-13.9-6.22,14.63-5.49,17.92-23.78,17.92-23.78-4.04-14.32-4.39-28.9-1.83-40.97,6.22-.73,24.51,6.22,34.75,12.44,0,0,23.78-3.72,38.04-3.72Z"/>
      <path class="cls-13" d="m1951.16,241.82c11.82.08,23.67,1.6,35.35,3.32,4.57.67,7.22-1.98,11.3-4.12,8.12-4.26,16.87-7.74,26.14-7.92-.8-.61-1.61-1.22-2.41-1.84,1.99,9.97,2.01,20.28.29,30.29-.8,4.67-2.79,8.72-1.46,13.33,2.9,10.04,9.14,18.85,19.01,22.87-.37-1.39-.73-2.79-1.1-4.18-3.46,3.14-8.34,4.68-12.8,5.58-2.24.45-2.26,3.47-.6,4.57,3.78,2.49,7.72,4.81,11.94,6.47-.37-1.39-.74-2.79-1.1-4.18-7.64,5.93-14.38,12.92-22.11,18.74-11.04,8.32-23.4,14.58-36.86,17.88-30.99,7.6-62.94.26-88.44-18.45-7.8-5.72-14.42-12.88-22.22-18.57-.2,1.52-.4,3.05-.6,4.57,4.22-1.66,8.15-3.98,11.94-6.47,1.66-1.09,1.64-4.12-.6-4.57-4.46-.89-9.34-2.44-12.8-5.58-.37,1.39-.73,2.79-1.1,4.18,9.87-4.02,16.11-12.83,19.01-22.87,1.33-4.61-.66-8.66-1.46-13.33-1.72-10.02-1.7-20.32.29-30.29-.8.61-1.61,1.22-2.41,1.84,6.15-.45,12.96,2.57,18.55,4.8,3.97,1.59,7.88,3.38,11.65,5.41,1.98,1.07,3.31,2.17,5.55,2.08,4.83-.2,9.79-1.39,14.59-1.95,7.45-.86,14.95-1.58,22.46-1.63,3.22-.02,3.22-5.02,0-5-7.51.05-15.01.77-22.46,1.63-3.13.36-6.26.76-9.38,1.19-1.83.25-4.39,1.1-6.24.89-1.32-.15.97.35-.29-.59-1.57-1.16-3.61-1.97-5.35-2.81-3.44-1.68-6.96-3.2-10.53-4.57-5.65-2.18-12.34-4.9-18.53-4.46-1.04.07-2.19.72-2.41,1.84-1.52,7.59-2.04,15.31-1.5,23.04.28,3.95.8,7.9,1.55,11.78.42,2.14,1.72,4.81,1.64,6.79-.12,3.05-2.16,6.9-3.55,9.48-2.82,5.25-6.9,9.64-12.5,11.92-1.61.66-2.64,2.79-1.1,4.18,4.11,3.73,9.66,5.79,15,6.86-.2-1.52-.4-3.05-.6-4.57-3.4,2.24-6.95,4.47-10.74,5.97-2.08.82-2.4,3.25-.6,4.57,7.08,5.17,13.16,11.7,20.16,17.02,10.99,8.36,23.23,15.05,36.47,19.09,30.89,9.4,65.54,4.24,92.05-14.17,9.66-6.7,17.76-15.16,27.01-22.33,1.65-1.28.41-3.58-1.1-4.18-3.79-1.49-7.35-3.73-10.74-5.97-.2,1.52-.4,3.05-.6,4.57,5.34-1.07,10.9-3.14,15-6.86,1.53-1.39.51-3.52-1.1-4.18-5.59-2.28-9.67-6.67-12.5-11.92-1.41-2.61-3.42-6.41-3.55-9.48-.09-2,1.22-4.62,1.64-6.79.75-3.89,1.28-7.83,1.55-11.78.53-7.73.02-15.44-1.5-23.04-.21-1.05-1.37-1.86-2.41-1.84-7.83.15-15.26,2.4-22.39,5.56-4.12,1.83-8.04,4.83-12.21,6.37-.43.16,1.07.34-.28.48-.57.06-1.31-.19-1.87-.28-11.91-1.74-23.99-3.33-36.04-3.41-3.22-.02-3.22,4.98,0,5Z"/>
    </g>
    <g>
      <path class="cls-9" d="m1932.13,294.97c8.6-2.68,24.67-4.46,38.06,0,0,0-7.71,8.93-19.03,12.05-10.87-2.23-19.03-12.05-19.03-12.05Z"/>
      <path class="cls-13" d="m1932.8,297.39c11.79-3.51,24.98-3.68,36.73,0-.37-1.39-.73-2.79-1.1-4.18-3.85,4.38-11.22,10.78-17.24,11-6.13.23-13.52-6.54-17.29-11-2.08-2.46-5.6,1.09-3.54,3.54,1.94,2.3,4.26,4.32,6.65,6.14,3.58,2.72,9.39,6.73,14.15,6.65,4.64-.08,10.53-4.19,14.08-6.82,2.4-1.77,4.75-3.72,6.72-5.97,1.25-1.43.76-3.59-1.1-4.18-12.57-3.94-26.78-3.75-39.39,0-3.08.91-1.77,5.74,1.33,4.82Z"/>
    </g>
    <path class="cls-13" d="m1948.66,307.03v8.03c0,3.22,5,3.22,5,0v-8.03c0-3.22-5-3.22-5,0h0Z"/>
    <g>
      <path class="cls-9" d="m2000.51,249.89c4.88-4.46,13.82-6.7,13.82-6.7,0,0,1.57,10.04-1.34,19.42,0,0-5.75-7.81-12.48-12.72Z"/>
      <path class="cls-13" d="m2002.28,251.66c3.55-3.04,8.22-4.9,12.71-6.05-1.03-.58-2.05-1.16-3.08-1.75.8,5.35.29,12.42-1.34,18.09,1.52-.2,3.05-.4,4.57-.6-3.81-5.13-8.28-9.76-13.37-13.62-2.57-1.94-5.06,2.4-2.52,4.32,4.36,3.3,8.32,7.43,11.58,11.82,1.24,1.66,3.93,1.62,4.57-.6,1.92-6.68,2.37-13.86,1.34-20.74-.2-1.35-1.9-2.05-3.08-1.75-5.36,1.37-10.7,3.72-14.92,7.34-2.45,2.1,1.11,5.62,3.54,3.53Z"/>
    </g>
    <g>
      <path class="cls-9" d="m1901.79,249.89c-4.88-4.46-13.82-6.7-13.82-6.7,0,0-1.57,10.04,1.34,19.42,0,0,5.75-7.81,12.48-12.72Z"/>
      <path class="cls-13" d="m1903.55,248.12c-4.22-3.62-9.56-5.96-14.92-7.34-1.19-.3-2.87.39-3.08,1.75-1.03,6.88-.58,14.06,1.34,20.75.64,2.23,3.33,2.26,4.57.6,3.26-4.39,7.22-8.53,11.58-11.82,2.53-1.92.04-6.26-2.52-4.32-5.1,3.86-9.56,8.49-13.37,13.62,1.52.2,3.05.4,4.57.6-1.63-5.68-2.14-12.73-1.34-18.09-1.03.58-2.05,1.16-3.08,1.75,4.5,1.15,9.16,3.01,12.71,6.05,2.43,2.09,5.98-1.44,3.54-3.53Z"/>
    </g>
    <path class="cls-3" d="m1942.88,324.32c0-4.57,3.71-8.28,8.28-8.28s8.28,3.71,8.28,8.28"/>
    <path class="cls-4" d="m1926.78,286.75c-6.47,6.47-16.96,6.47-23.43,0"/>
    <path class="cls-7" d="m1902.95,357.97v-49.87l.4-.35c6.47-6.47,16.96-6.47,23.43,0l.4.35v49.87h-24.23Z"/>
    <path class="cls-4" d="m1975.08,286.75c6.47,6.47,16.96,6.47,23.43,0"/>
    <path class="cls-7" d="m1974.69,357.97v-49.87l.4-.35c6.47-6.47,16.96-6.47,23.43,0l.4.35v49.87h-24.23Z"/>
    <g>
      <path class="cls-16" d="m1951.14,239.54c-5.11,0-11.42.47-17.45,1.08h0s17.45,29.12,17.45,29.12l17.46-29.11h0c-6.02-.62-12.35-1.09-17.46-1.09Z"/>
      <path class="cls-13" d="m1951.14,237.04c-5.83.05-11.64.51-17.45,1.08-1.35.13-2.5,1.04-2.5,2.5,0,1.58,1.68,3.5,2.43,4.75,1.96,3.26,3.91,6.53,5.87,9.79,3.16,5.28,6.33,10.56,9.49,15.84.97,1.62,3.35,1.62,4.32,0,3.17-5.28,6.33-10.56,9.5-15.84,1.96-3.26,3.92-6.53,5.87-9.79.76-1.26,2.43-3.17,2.43-4.75,0-1.45-1.15-2.37-2.5-2.5-5.81-.57-11.62-1.03-17.46-1.08-3.22-.03-3.22,4.97,0,5,5.84.05,11.65.51,17.46,1.08-.83-.83-1.67-1.67-2.5-2.5,0-1.74.38-1.09-.44.05-.76,1.06-1.37,2.29-2.04,3.4-1.97,3.28-3.94,6.56-5.91,9.84-2.91,4.85-5.82,9.7-8.73,14.55h4.32c-2.91-4.85-5.82-9.7-8.72-14.55-1.97-3.28-3.93-6.56-5.9-9.84-.64-1.06-1.22-2.2-1.93-3.21-.81-1.16-.55-2.1-.55-.24-.83.83-1.67,1.67-2.5,2.5,5.8-.57,11.61-1.03,17.45-1.08,3.22-.03,3.23-5.03,0-5Z"/>
    </g>
  </g>
  <g>
    <g>
      <path class="cls-14" d="m1736.74,239.32c14.27,0,38.04,3.72,38.04,3.72,10.24-6.22,23.11-12.49,34.75-12.44,2.56,12.07,2.21,26.65-1.83,40.97,0,0,3.29,18.29,17.92,23.78,0,0-4.98,4.66-13.9,6.22,0,0,7.04,4.67,11.34,6.22-14.74,11.3-36.95,40.31-86.33,40.31s-76.16-33.03-86.33-40.31c4.3-1.55,11.34-6.22,11.34-6.22-8.92-1.55-13.9-6.22-13.9-6.22,14.63-5.49,17.92-23.78,17.92-23.78-4.04-14.32-4.39-28.9-1.83-40.97,6.22-.73,24.51,6.22,34.75,12.44,0,0,23.78-3.72,38.04-3.72Z"/>
      <path class="cls-13" d="m1736.74,241.82c11.82.08,23.67,1.6,35.35,3.32,4.57.67,7.22-1.98,11.3-4.12,8.12-4.26,16.87-7.74,26.14-7.92-.8-.61-1.61-1.22-2.41-1.84,1.99,9.97,2.01,20.28.29,30.29-.8,4.67-2.79,8.72-1.46,13.33,2.9,10.04,9.14,18.85,19.01,22.87-.37-1.39-.73-2.79-1.1-4.18-3.46,3.14-8.34,4.68-12.8,5.58-2.24.45-2.26,3.47-.6,4.57,3.78,2.49,7.72,4.81,11.94,6.47-.37-1.39-.73-2.79-1.1-4.18-7.64,5.93-14.38,12.92-22.11,18.74-11.04,8.32-23.4,14.58-36.86,17.88-30.99,7.6-62.94.26-88.44-18.45-7.8-5.72-14.42-12.88-22.21-18.57-.2,1.52-.4,3.05-.6,4.57,4.22-1.66,8.15-3.98,11.94-6.47,1.66-1.09,1.64-4.12-.6-4.57-4.46-.89-9.34-2.44-12.8-5.58-.37,1.39-.73,2.79-1.1,4.18,9.87-4.02,16.11-12.83,19.01-22.87,1.33-4.61-.66-8.66-1.46-13.33-1.72-10.02-1.7-20.32.29-30.29-.8.61-1.61,1.22-2.41,1.84,6.15-.45,12.96,2.57,18.55,4.8,3.98,1.59,7.88,3.38,11.65,5.41,1.98,1.07,3.31,2.17,5.55,2.08,4.83-.2,9.79-1.39,14.59-1.95,7.45-.86,14.95-1.58,22.46-1.63,3.22-.02,3.22-5.02,0-5-7.51.05-15,.77-22.46,1.63-3.13.36-6.26.76-9.38,1.19-1.83.25-4.39,1.1-6.24.89-1.32-.15.98.35-.3-.59-1.57-1.16-3.61-1.97-5.35-2.81-3.44-1.68-6.96-3.2-10.53-4.57-5.65-2.18-12.34-4.9-18.53-4.46-1.04.07-2.19.72-2.41,1.84-1.52,7.59-2.04,15.31-1.5,23.04.27,3.95.8,7.9,1.55,11.78.42,2.14,1.72,4.81,1.64,6.79-.12,3.05-2.16,6.9-3.55,9.48-2.82,5.25-6.9,9.64-12.5,11.92-1.61.66-2.64,2.79-1.1,4.18,4.11,3.73,9.66,5.79,15,6.86-.2-1.52-.4-3.05-.6-4.57-3.4,2.24-6.95,4.47-10.74,5.97-2.08.82-2.4,3.25-.6,4.57,7.08,5.17,13.16,11.7,20.16,17.02,10.99,8.36,23.23,15.05,36.48,19.09,30.89,9.4,65.53,4.24,92.05-14.17,9.65-6.7,17.76-15.16,27.01-22.33,1.65-1.28.42-3.58-1.1-4.18-3.79-1.49-7.35-3.73-10.74-5.97-.2,1.52-.4,3.05-.6,4.57,5.34-1.07,10.9-3.14,15-6.86,1.54-1.39.51-3.52-1.1-4.18-5.59-2.28-9.67-6.67-12.5-11.92-1.4-2.61-3.42-6.41-3.55-9.48-.08-2,1.23-4.62,1.64-6.79.75-3.89,1.28-7.83,1.55-11.78.53-7.73.02-15.44-1.5-23.04-.21-1.05-1.37-1.86-2.41-1.84-7.83.15-15.26,2.4-22.39,5.56-4.12,1.83-8.04,4.83-12.21,6.37-.43.16,1.07.34-.28.48-.57.06-1.31-.19-1.87-.28-11.91-1.74-23.99-3.33-36.05-3.41-3.22-.02-3.22,4.98,0,5Z"/>
    </g>
    <g>
      <path class="cls-9" d="m1717.71,294.97c8.6-2.68,24.67-4.46,38.06,0,0,0-7.71,8.93-19.03,12.05-10.87-2.23-19.03-12.05-19.03-12.05Z"/>
      <path class="cls-13" d="m1718.37,297.39c11.79-3.51,24.98-3.68,36.73,0-.37-1.39-.73-2.79-1.1-4.18-3.85,4.38-11.22,10.78-17.24,11-6.13.23-13.52-6.54-17.29-11-2.08-2.46-5.6,1.09-3.54,3.54,1.94,2.3,4.26,4.32,6.65,6.14,3.58,2.72,9.39,6.73,14.15,6.65,4.64-.08,10.53-4.19,14.08-6.82,2.4-1.77,4.75-3.72,6.72-5.97,1.25-1.43.76-3.59-1.1-4.18-12.57-3.94-26.78-3.75-39.39,0-3.08.91-1.77,5.74,1.33,4.82Z"/>
    </g>
    <path class="cls-13" d="m1734.24,307.03v8.03c0,3.22,5,3.22,5,0v-8.03c0-3.22-5-3.22-5,0h0Z"/>
    <g>
      <path class="cls-9" d="m1786.09,249.89c4.88-4.46,13.82-6.7,13.82-6.7,0,0,1.57,10.04-1.34,19.42,0,0-5.75-7.81-12.48-12.72Z"/>
      <path class="cls-13" d="m1787.86,251.66c3.55-3.04,8.21-4.9,12.71-6.05-1.02-.58-2.05-1.16-3.08-1.75.8,5.35.29,12.42-1.34,18.09,1.52-.2,3.05-.4,4.57-.6-3.81-5.13-8.28-9.76-13.37-13.62-2.57-1.94-5.06,2.4-2.52,4.32,4.36,3.3,8.32,7.43,11.58,11.82,1.24,1.66,3.93,1.62,4.57-.6,1.92-6.68,2.37-13.86,1.34-20.74-.2-1.35-1.89-2.05-3.08-1.75-5.36,1.37-10.7,3.72-14.92,7.34-2.45,2.1,1.1,5.62,3.54,3.53Z"/>
    </g>
    <g>
      <path class="cls-9" d="m1687.36,249.89c-4.88-4.46-13.82-6.7-13.82-6.7,0,0-1.57,10.04,1.34,19.42,0,0,5.75-7.81,12.48-12.72Z"/>
      <path class="cls-13" d="m1689.13,248.12c-4.22-3.62-9.56-5.96-14.92-7.34-1.19-.3-2.87.39-3.08,1.75-1.03,6.88-.58,14.06,1.34,20.75.64,2.23,3.33,2.26,4.57.6,3.26-4.39,7.22-8.53,11.58-11.82,2.53-1.92.05-6.26-2.52-4.32-5.1,3.86-9.56,8.49-13.37,13.62,1.52.2,3.05.4,4.57.6-1.63-5.68-2.14-12.73-1.34-18.09-1.02.58-2.05,1.16-3.08,1.75,4.5,1.15,9.17,3.01,12.71,6.05,2.43,2.09,5.98-1.44,3.54-3.53Z"/>
    </g>
    <path class="cls-4" d="m1745.49,314.08c-4.83,4.83-12.67,4.83-17.5,0"/>
    <g>
      <circle class="cls-8" cx="1699.83" cy="287.85" r="24.3"/>
      <circle class="cls-8" cx="1773.65" cy="287.85" r="24.3"/>
      <path class="cls-4" d="m1691.86,288.71c0-4.4,3.57-7.97,7.97-7.97s7.97,3.57,7.97,7.97"/>
      <path class="cls-4" d="m1725.22,286.32c6.66-6.66,17.47-6.66,24.13,0"/>
      <path class="cls-4" d="m1765.68,288.71c0-4.4,3.57-7.97,7.97-7.97s7.97,3.57,7.97,7.97"/>
    </g>
    <g>
      <path class="cls-16" d="m1736.72,239.54c-5.11,0-11.43.47-17.45,1.08h0s17.45,29.12,17.45,29.12l17.46-29.11h0c-6.02-.62-12.35-1.09-17.46-1.09Z"/>
      <path class="cls-13" d="m1736.72,237.04c-5.83.05-11.64.51-17.45,1.08-1.35.13-2.5,1.04-2.5,2.5,0,1.58,1.68,3.5,2.43,4.75,1.96,3.26,3.91,6.53,5.87,9.79,3.16,5.28,6.33,10.56,9.49,15.84.97,1.62,3.35,1.62,4.32,0,3.17-5.28,6.33-10.56,9.5-15.84,1.96-3.26,3.92-6.53,5.87-9.79.76-1.26,2.43-3.17,2.43-4.75,0-1.45-1.15-2.37-2.5-2.5-5.81-.57-11.62-1.03-17.46-1.08-3.22-.03-3.22,4.97,0,5,5.84.05,11.65.51,17.46,1.08-.83-.83-1.67-1.67-2.5-2.5,0-1.74.38-1.09-.44.05-.76,1.06-1.37,2.29-2.04,3.4-1.97,3.28-3.94,6.56-5.9,9.84-2.91,4.85-5.82,9.7-8.73,14.55h4.32c-2.91-4.85-5.82-9.7-8.72-14.55-1.97-3.28-3.93-6.56-5.9-9.84-.64-1.06-1.22-2.2-1.93-3.21-.81-1.16-.55-2.1-.55-.24-.83.83-1.67,1.67-2.5,2.5,5.8-.57,11.61-1.03,17.45-1.08,3.22-.03,3.23-5.03,0-5Z"/>
    </g>
  </g>
  <g>
    <g>
      <path class="cls-14" d="m1107.8,564.63c12.99,0,34.63,3.72,34.63,3.72,9.32-6.22,21.04-12.49,31.63-12.44,2.33,12.07,2.01,26.65-1.66,40.97,0,0,3,18.29,16.32,23.78,0,0-4.54,4.66-12.65,6.22,0,0,6.4,4.67,10.32,6.22-13.42,11.3-33.63,40.31-78.58,40.31s-69.32-33.03-78.58-40.31c3.92-1.55,10.32-6.22,10.32-6.22-8.12-1.55-12.65-6.22-12.65-6.22,13.32-5.49,16.32-23.78,16.32-23.78-3.68-14.32-4-28.9-1.66-40.97,5.66-.73,22.31,6.22,31.63,12.44,0,0,21.64-3.72,34.63-3.72Z"/>
      <path class="cls-15" d="m1107.8,567.13c10.76.08,21.55,1.6,32.18,3.32,4.16.67,6.57-1.98,10.29-4.12,7.39-4.26,15.36-7.74,23.8-7.92-.73-.61-1.46-1.22-2.19-1.84,1.81,9.97,1.83,20.28.26,30.29-.73,4.67-2.54,8.72-1.33,13.33,2.64,10.04,8.32,18.85,17.31,22.87-.33-1.39-.67-2.79-1-4.18-3.15,3.14-7.59,4.68-11.65,5.58-2.04.45-2.06,3.47-.54,4.57,3.44,2.49,7.02,4.81,10.87,6.47-.33-1.39-.67-2.79-1-4.18-6.95,5.93-13.09,12.92-20.13,18.74-10.05,8.32-21.3,14.58-33.55,17.88-28.21,7.6-57.29.26-80.5-18.45-7.1-5.72-13.13-12.88-20.22-18.57-.18,1.52-.36,3.05-.54,4.57,3.84-1.66,7.42-3.98,10.87-6.47,1.51-1.09,1.5-4.12-.54-4.57-4.06-.89-8.5-2.44-11.65-5.58-.33,1.39-.67,2.79-1,4.18,8.98-4.02,14.67-12.83,17.31-22.87,1.21-4.61-.6-8.66-1.33-13.33-1.57-10.02-1.55-20.32.26-30.29-.73.61-1.46,1.22-2.19,1.84,5.6-.45,11.79,2.57,16.88,4.8,3.62,1.59,7.17,3.38,10.6,5.41,1.8,1.07,3.01,2.17,5.05,2.08,4.4-.2,8.91-1.39,13.28-1.95,6.78-.86,13.61-1.58,20.44-1.63,2.93-.02,2.93-5.02,0-5-6.84.05-13.66.77-20.44,1.63-2.85.36-5.7.76-8.54,1.19-1.66.25-4,1.1-5.68.89-1.21-.15.89.35-.27-.59-1.42-1.16-3.29-1.97-4.87-2.81-3.13-1.68-6.34-3.2-9.58-4.57-5.14-2.18-11.23-4.9-16.87-4.46-.95.07-1.99.72-2.19,1.84-1.38,7.59-1.86,15.31-1.37,23.04.25,3.95.73,7.9,1.41,11.78.38,2.14,1.57,4.81,1.5,6.79-.11,3.05-1.97,6.9-3.23,9.48-2.57,5.25-6.28,9.64-11.37,11.92-1.47.66-2.4,2.79-1,4.18,3.74,3.73,8.79,5.79,13.66,6.86-.18-1.52-.36-3.05-.54-4.57-3.09,2.24-6.33,4.47-9.78,5.97-1.89.82-2.19,3.25-.54,4.57,6.44,5.17,11.98,11.7,18.35,17.02,10.01,8.36,21.15,15.05,33.2,19.09,28.11,9.4,59.65,4.24,83.79-14.17,8.79-6.7,16.16-15.16,24.58-22.33,1.5-1.28.38-3.58-1-4.18-3.45-1.49-6.69-3.73-9.78-5.97-.18,1.52-.36,3.05-.54,4.57,4.86-1.07,9.92-3.14,13.66-6.86,1.4-1.39.46-3.52-1-4.18-5.09-2.28-8.81-6.67-11.37-11.92-1.28-2.61-3.11-6.41-3.23-9.48-.08-2,1.12-4.62,1.5-6.79.68-3.89,1.17-7.83,1.41-11.78.48-7.73.02-15.44-1.37-23.04-.19-1.05-1.25-1.86-2.19-1.84-7.13.15-13.89,2.4-20.38,5.56-3.75,1.83-7.32,4.83-11.12,6.37-.39.16.97.34-.25.48-.52.06-1.19-.19-1.7-.28-10.84-1.74-21.84-3.33-32.81-3.41-2.93-.02-2.93,4.98,0,5Z"/>
    </g>
    <g>
      <path class="cls-20" d="m1152.72,575.21c4.44-4.46,12.58-6.7,12.58-6.7,0,0,1.43,10.04-1.22,19.42,0,0-5.24-7.81-11.36-12.72Z"/>
      <path class="cls-20" d="m1154.33,576.98c3.23-3.04,7.48-4.9,11.57-6.05-.93-.58-1.87-1.16-2.8-1.75.73,5.35.26,12.42-1.22,18.09,1.39-.2,2.77-.4,4.16-.6-3.47-5.13-7.53-9.76-12.17-13.62-2.34-1.94-4.61,2.4-2.3,4.32,3.97,3.3,7.57,7.43,10.54,11.82,1.13,1.66,3.58,1.62,4.16-.6,1.75-6.68,2.15-13.86,1.22-20.74-.18-1.35-1.72-2.05-2.8-1.75-4.88,1.37-9.74,3.72-13.58,7.34-2.23,2.1,1.01,5.62,3.22,3.53Z"/>
    </g>
    <g>
      <path class="cls-20" d="m1062.85,575.21c-4.44-4.46-12.58-6.7-12.58-6.7,0,0-1.43,10.04,1.22,19.42,0,0,5.24-7.81,11.36-12.72Z"/>
      <path class="cls-20" d="m1064.46,573.44c-3.84-3.62-8.7-5.96-13.58-7.34-1.08-.3-2.62.39-2.8,1.75-.93,6.88-.53,14.06,1.22,20.75.58,2.23,3.03,2.26,4.16.6,2.97-4.39,6.57-8.53,10.54-11.82,2.31-1.92.04-6.26-2.3-4.32-4.64,3.86-8.7,8.49-12.17,13.62,1.39.2,2.77.4,4.16.6-1.49-5.68-1.95-12.73-1.22-18.09-.93.58-1.87,1.16-2.8,1.75,4.09,1.15,8.34,3.01,11.57,6.05,2.21,2.09,5.45-1.44,3.22-3.53Z"/>
    </g>
  </g>
  <g>
    <g>
      <path class="cls-14" d="m1736.74,581.76c14.27,0,38.04,3.72,38.04,3.72,10.24-6.22,23.11-12.49,34.75-12.44,2.56,12.07,2.21,26.65-1.83,40.97,0,0,3.29,18.29,17.92,23.78,0,0-4.98,4.66-13.9,6.22,0,0,7.04,4.67,11.34,6.22-14.74,11.3-36.95,40.31-86.33,40.31s-76.16-33.03-86.33-40.31c4.3-1.55,11.34-6.22,11.34-6.22-8.92-1.55-13.9-6.22-13.9-6.22,14.63-5.49,17.92-23.78,17.92-23.78-4.04-14.32-4.39-28.9-1.83-40.97,6.22-.73,24.51,6.22,34.75,12.44,0,0,23.78-3.72,38.04-3.72Z"/>
      <path class="cls-13" d="m1736.74,584.26c11.82.08,23.67,1.6,35.35,3.33,4.57.67,7.22-1.98,11.3-4.12,8.12-4.26,16.87-7.74,26.14-7.92-.8-.61-1.61-1.22-2.41-1.84,1.99,9.97,2.01,20.28.29,30.29-.8,4.67-2.79,8.72-1.46,13.33,2.9,10.04,9.14,18.85,19.01,22.87-.37-1.39-.73-2.79-1.1-4.18-3.46,3.14-8.34,4.68-12.8,5.58-2.24.45-2.26,3.47-.6,4.57,3.78,2.49,7.72,4.81,11.94,6.47-.37-1.39-.73-2.79-1.1-4.18-7.64,5.93-14.38,12.92-22.11,18.74-11.04,8.32-23.4,14.58-36.86,17.88-30.99,7.6-62.94.26-88.44-18.45-7.8-5.72-14.42-12.88-22.21-18.57-.2,1.52-.4,3.05-.6,4.57,4.22-1.66,8.15-3.98,11.94-6.47,1.66-1.09,1.64-4.12-.6-4.57-4.46-.9-9.34-2.44-12.8-5.58-.37,1.39-.73,2.79-1.1,4.18,9.87-4.02,16.11-12.83,19.01-22.87,1.33-4.61-.66-8.66-1.46-13.33-1.72-10.02-1.7-20.32.29-30.29-.8.61-1.61,1.22-2.41,1.84,6.15-.45,12.96,2.57,18.55,4.8,3.98,1.59,7.88,3.38,11.65,5.41,1.98,1.07,3.31,2.17,5.55,2.08,4.83-.2,9.79-1.39,14.59-1.95,7.45-.86,14.95-1.58,22.46-1.63,3.22-.02,3.22-5.02,0-5-7.51.05-15,.77-22.46,1.63-3.13.36-6.26.76-9.38,1.19-1.83.25-4.39,1.1-6.24.89-1.32-.15.98.35-.3-.59-1.57-1.16-3.61-1.97-5.35-2.81-3.44-1.68-6.96-3.2-10.53-4.57-5.65-2.18-12.34-4.9-18.53-4.46-1.04.08-2.19.72-2.41,1.84-1.52,7.59-2.04,15.31-1.5,23.04.27,3.95.8,7.9,1.55,11.78.42,2.14,1.72,4.81,1.64,6.78-.12,3.05-2.16,6.9-3.55,9.48-2.82,5.25-6.9,9.64-12.5,11.91-1.61.66-2.64,2.79-1.1,4.18,4.11,3.73,9.66,5.79,15,6.86-.2-1.52-.4-3.05-.6-4.57-3.4,2.24-6.95,4.47-10.74,5.97-2.08.82-2.4,3.25-.6,4.57,7.08,5.17,13.16,11.7,20.16,17.02,10.99,8.36,23.23,15.05,36.48,19.09,30.89,9.4,65.53,4.24,92.05-14.17,9.65-6.7,17.76-15.16,27.01-22.33,1.65-1.28.42-3.58-1.1-4.18-3.79-1.49-7.35-3.73-10.74-5.97-.2,1.52-.4,3.05-.6,4.57,5.34-1.07,10.9-3.14,15-6.86,1.54-1.39.51-3.52-1.1-4.18-5.59-2.28-9.67-6.67-12.5-11.91-1.4-2.61-3.42-6.41-3.55-9.48-.08-2,1.23-4.62,1.64-6.78.75-3.89,1.28-7.83,1.55-11.78.53-7.73.02-15.44-1.5-23.04-.21-1.05-1.37-1.86-2.41-1.84-7.83.15-15.26,2.4-22.39,5.56-4.12,1.83-8.04,4.83-12.21,6.37-.43.16,1.07.34-.28.47-.57.06-1.31-.19-1.87-.28-11.91-1.73-23.99-3.33-36.05-3.41-3.22-.02-3.22,4.98,0,5Z"/>
    </g>
    <g>
      <path class="cls-9" d="m1717.71,637.42c8.6-2.68,24.67-4.46,38.06,0,0,0-7.71,8.93-19.03,12.05-10.87-2.23-19.03-12.05-19.03-12.05Z"/>
      <path class="cls-13" d="m1718.37,639.83c11.79-3.51,24.98-3.68,36.73,0-.37-1.39-.73-2.79-1.1-4.18-3.85,4.38-11.22,10.78-17.24,11-6.13.23-13.52-6.54-17.29-11-2.08-2.46-5.6,1.09-3.54,3.54,1.94,2.3,4.26,4.32,6.65,6.14,3.58,2.72,9.39,6.73,14.15,6.65,4.64-.08,10.53-4.19,14.08-6.82,2.4-1.77,4.75-3.72,6.72-5.97,1.25-1.43.76-3.59-1.1-4.18-12.57-3.94-26.78-3.75-39.39,0-3.08.91-1.77,5.74,1.33,4.82Z"/>
    </g>
    <path class="cls-13" d="m1734.24,649.47v12.03c0,3.22,5,3.22,5,0v-12.03c0-3.22-5-3.22-5,0h0Z"/>
    <g>
      <path class="cls-9" d="m1786.09,592.34c4.88-4.46,13.82-6.7,13.82-6.7,0,0,1.57,10.04-1.34,19.42,0,0-5.75-7.81-12.48-12.72Z"/>
      <path class="cls-13" d="m1787.86,594.11c3.55-3.04,8.21-4.9,12.71-6.05-1.02-.58-2.05-1.16-3.08-1.75.8,5.35.29,12.42-1.34,18.09,1.52-.2,3.05-.4,4.57-.6-3.81-5.13-8.28-9.76-13.37-13.62-2.57-1.94-5.06,2.4-2.52,4.32,4.36,3.3,8.32,7.43,11.58,11.82,1.24,1.66,3.93,1.62,4.57-.6,1.92-6.68,2.37-13.86,1.34-20.74-.2-1.35-1.89-2.05-3.08-1.75-5.36,1.37-10.7,3.72-14.92,7.34-2.45,2.1,1.1,5.62,3.54,3.53Z"/>
    </g>
    <g>
      <path class="cls-9" d="m1687.36,592.34c-4.88-4.46-13.82-6.7-13.82-6.7,0,0-1.57,10.04,1.34,19.42,0,0,5.75-7.81,12.48-12.72Z"/>
      <path class="cls-13" d="m1689.13,590.57c-4.22-3.62-9.56-5.97-14.92-7.34-1.19-.3-2.87.39-3.08,1.75-1.03,6.88-.58,14.07,1.34,20.74.64,2.23,3.33,2.26,4.57.6,3.26-4.39,7.22-8.53,11.58-11.82,2.53-1.92.05-6.26-2.52-4.32-5.1,3.86-9.56,8.49-13.37,13.62,1.52.2,3.05.4,4.57.6-1.63-5.68-2.14-12.73-1.34-18.09-1.02.58-2.05,1.16-3.08,1.75,4.5,1.15,9.17,3.01,12.71,6.05,2.43,2.09,5.98-1.44,3.54-3.53Z"/>
    </g>
    <path class="cls-4" d="m1751.24,657.38c-8.01,8.01-20.99,8.01-29,0"/>
    <g>
      <path class="cls-16" d="m1736.73,581.99c-5.11,0-11.43.47-17.45,1.08h0s17.45,29.12,17.45,29.12l17.46-29.11h0c-6.02-.62-12.35-1.09-17.46-1.09Z"/>
      <path class="cls-13" d="m1736.73,579.49c-5.83.05-11.64.51-17.45,1.08-1.35.13-2.5,1.04-2.5,2.5,0,1.58,1.68,3.5,2.43,4.75,1.96,3.26,3.91,6.53,5.87,9.79,3.16,5.28,6.33,10.56,9.49,15.84.97,1.62,3.35,1.62,4.32,0,3.17-5.28,6.33-10.56,9.5-15.84,1.96-3.26,3.92-6.53,5.87-9.79.76-1.26,2.43-3.17,2.43-4.75,0-1.45-1.15-2.37-2.5-2.5-5.81-.57-11.62-1.03-17.46-1.08-3.22-.03-3.22,4.97,0,5,5.84.05,11.65.51,17.46,1.08l-2.5-2.5c0-1.75.38-1.09-.44.05-.76,1.06-1.37,2.29-2.04,3.41-1.97,3.28-3.94,6.56-5.9,9.84-2.91,4.85-5.82,9.7-8.73,14.55h4.32c-2.91-4.85-5.82-9.7-8.72-14.55-1.97-3.28-3.93-6.56-5.9-9.84-.64-1.06-1.22-2.2-1.93-3.22-.81-1.16-.55-2.1-.55-.24l-2.5,2.5c5.8-.57,11.61-1.03,17.45-1.08,3.22-.03,3.23-5.03,0-5Z"/>
    </g>
    <g>
      <path class="cls-6" d="m1703.55,622.99c-3.19,0-5.93,1.85-7.24,4.54-1.31-2.68-4.05-4.54-7.24-4.54-4.45,0-8.06,3.61-8.06,8.06,0,8.47,15.3,13.36,15.3,13.36,0,0,15.3-5.44,15.3-13.36,0-4.45-3.61-8.06-8.06-8.06Z"/>
      <path class="cls-6" d="m1785.15,622.99c-3.19,0-5.93,1.85-7.24,4.54-1.31-2.68-4.05-4.54-7.24-4.54-4.45,0-8.06,3.61-8.06,8.06,0,8.47,15.3,13.36,15.3,13.36,0,0,15.3-5.44,15.3-13.36,0-4.45-3.61-8.06-8.06-8.06Z"/>
    </g>
  </g>
  <g>
    <g>
      <path class="cls-14" d="m1951.15,581.76c14.27,0,38.04,3.72,38.04,3.72,10.24-6.22,23.11-12.49,34.75-12.44,2.56,12.07,2.21,26.65-1.83,40.97,0,0,3.29,18.29,17.92,23.78,0,0-4.98,4.66-13.9,6.22,0,0,7.03,4.67,11.34,6.22-14.74,11.3-36.95,40.31-86.33,40.31s-76.16-33.03-86.33-40.31c4.3-1.55,11.34-6.22,11.34-6.22-8.92-1.55-13.9-6.22-13.9-6.22,14.63-5.49,17.92-23.78,17.92-23.78-4.04-14.32-4.39-28.9-1.83-40.97,6.22-.73,24.51,6.22,34.75,12.44,0,0,23.78-3.72,38.04-3.72Z"/>
      <path class="cls-13" d="m1951.15,584.26c11.82.08,23.67,1.6,35.35,3.33,4.57.67,7.22-1.98,11.3-4.12,8.12-4.26,16.87-7.74,26.14-7.92-.8-.61-1.61-1.22-2.41-1.84,1.99,9.97,2.01,20.28.29,30.29-.8,4.67-2.79,8.72-1.46,13.33,2.9,10.04,9.14,18.85,19.01,22.87-.37-1.39-.73-2.79-1.1-4.18-3.46,3.14-8.34,4.68-12.8,5.58-2.24.45-2.26,3.47-.6,4.57,3.78,2.49,7.72,4.81,11.94,6.47-.37-1.39-.73-2.79-1.1-4.18-7.64,5.93-14.38,12.92-22.11,18.74-11.04,8.32-23.4,14.58-36.86,17.88-30.99,7.6-62.94.26-88.44-18.45-7.8-5.72-14.42-12.88-22.22-18.57-.2,1.52-.4,3.05-.6,4.57,4.22-1.66,8.15-3.98,11.94-6.47,1.66-1.09,1.64-4.12-.6-4.57-4.46-.9-9.34-2.44-12.8-5.58-.37,1.39-.74,2.79-1.1,4.18,9.87-4.02,16.11-12.83,19.01-22.87,1.33-4.61-.66-8.66-1.46-13.33-1.72-10.02-1.7-20.32.29-30.29-.8.61-1.61,1.22-2.41,1.84,6.15-.45,12.96,2.57,18.55,4.8,3.97,1.59,7.88,3.38,11.65,5.41,1.98,1.07,3.31,2.17,5.55,2.08,4.83-.2,9.79-1.39,14.59-1.95,7.45-.86,14.95-1.58,22.46-1.63,3.22-.02,3.22-5.02,0-5-7.51.05-15.01.77-22.46,1.63-3.13.36-6.26.76-9.38,1.19-1.83.25-4.39,1.1-6.24.89-1.32-.15.97.35-.29-.59-1.57-1.16-3.61-1.97-5.35-2.81-3.44-1.68-6.96-3.2-10.53-4.57-5.65-2.18-12.34-4.9-18.53-4.46-1.04.08-2.19.72-2.41,1.84-1.52,7.59-2.04,15.31-1.5,23.04.28,3.95.8,7.9,1.55,11.78.42,2.14,1.72,4.81,1.64,6.78-.12,3.05-2.16,6.9-3.55,9.48-2.82,5.25-6.9,9.64-12.5,11.91-1.61.66-2.64,2.79-1.1,4.18,4.11,3.73,9.66,5.79,15,6.86-.2-1.52-.4-3.05-.6-4.57-3.4,2.24-6.95,4.47-10.74,5.97-2.08.82-2.4,3.25-.6,4.57,7.08,5.17,13.16,11.7,20.16,17.02,10.99,8.36,23.23,15.05,36.48,19.09,30.89,9.4,65.53,4.24,92.05-14.17,9.66-6.7,17.76-15.16,27.01-22.33,1.65-1.28.41-3.58-1.1-4.18-3.79-1.49-7.35-3.73-10.74-5.97-.2,1.52-.4,3.05-.6,4.57,5.34-1.07,10.9-3.14,15-6.86,1.53-1.39.51-3.52-1.1-4.18-5.59-2.28-9.67-6.67-12.5-11.91-1.41-2.61-3.42-6.41-3.55-9.48-.09-2,1.22-4.62,1.64-6.78.75-3.89,1.28-7.83,1.55-11.78.53-7.73.02-15.44-1.5-23.04-.21-1.05-1.37-1.86-2.41-1.84-7.83.15-15.26,2.4-22.39,5.56-4.12,1.83-8.04,4.83-12.21,6.37-.43.16,1.07.34-.28.47-.57.06-1.31-.19-1.87-.28-11.91-1.73-23.99-3.33-36.04-3.41-3.22-.02-3.22,4.98,0,5Z"/>
    </g>
    <g>
      <path class="cls-9" d="m1932.12,637.42c8.6-2.68,24.67-4.46,38.06,0,0,0-7.71,8.93-19.03,12.05-10.87-2.23-19.03-12.05-19.03-12.05Z"/>
      <path class="cls-13" d="m1932.78,639.83c11.79-3.51,24.98-3.68,36.73,0-.37-1.39-.73-2.79-1.1-4.18-3.85,4.38-11.22,10.78-17.24,11-6.13.23-13.52-6.54-17.29-11-2.08-2.46-5.6,1.09-3.54,3.54,1.94,2.3,4.26,4.32,6.65,6.14,3.58,2.72,9.39,6.73,14.15,6.65,4.64-.08,10.53-4.19,14.08-6.82,2.4-1.77,4.75-3.72,6.72-5.97,1.25-1.43.76-3.59-1.1-4.18-12.57-3.94-26.78-3.75-39.39,0-3.08.91-1.77,5.74,1.33,4.82Z"/>
    </g>
    <path class="cls-13" d="m1948.65,649.47v9.03c0,3.22,5,3.22,5,0v-9.03c0-3.22-5-3.22-5,0h0Z"/>
    <g>
      <path class="cls-9" d="m2000.5,592.34c4.88-4.46,13.82-6.7,13.82-6.7,0,0,1.57,10.04-1.34,19.42,0,0-5.75-7.81-12.48-12.72Z"/>
      <path class="cls-13" d="m2002.27,594.11c3.55-3.04,8.22-4.9,12.71-6.05-1.03-.58-2.05-1.16-3.08-1.75.8,5.35.29,12.42-1.34,18.09,1.52-.2,3.05-.4,4.57-.6-3.81-5.13-8.28-9.76-13.37-13.62-2.57-1.94-5.06,2.4-2.52,4.32,4.36,3.3,8.32,7.43,11.58,11.82,1.24,1.66,3.93,1.62,4.57-.6,1.92-6.68,2.37-13.86,1.34-20.74-.2-1.35-1.9-2.05-3.08-1.75-5.36,1.37-10.7,3.72-14.92,7.34-2.45,2.1,1.11,5.62,3.54,3.53Z"/>
    </g>
    <g>
      <path class="cls-9" d="m1901.77,592.34c-4.88-4.46-13.82-6.7-13.82-6.7,0,0-1.57,10.04,1.34,19.42,0,0,5.75-7.81,12.48-12.72Z"/>
      <path class="cls-13" d="m1903.54,590.57c-4.22-3.62-9.56-5.97-14.92-7.34-1.19-.3-2.87.39-3.08,1.75-1.03,6.88-.58,14.07,1.34,20.74.64,2.23,3.33,2.26,4.57.6,3.26-4.39,7.22-8.53,11.58-11.82,2.53-1.92.04-6.26-2.52-4.32-5.1,3.86-9.56,8.49-13.37,13.62,1.52.2,3.05.4,4.57.6-1.63-5.68-2.14-12.73-1.34-18.09-1.03.58-2.05,1.16-3.08,1.75,4.5,1.15,9.16,3.01,12.71,6.05,2.43,2.09,5.98-1.44,3.54-3.53Z"/>
    </g>
    <g>
      <path class="cls-16" d="m1951.14,581.99c-5.11,0-11.42.47-17.45,1.08h0s17.45,29.12,17.45,29.12l17.46-29.11h0c-6.02-.62-12.35-1.09-17.46-1.09Z"/>
      <path class="cls-13" d="m1951.14,579.49c-5.83.05-11.64.51-17.45,1.08-1.35.13-2.5,1.04-2.5,2.5,0,1.58,1.68,3.5,2.43,4.75,1.96,3.26,3.91,6.53,5.87,9.79,3.16,5.28,6.33,10.56,9.49,15.84.97,1.62,3.35,1.62,4.32,0,3.17-5.28,6.33-10.56,9.5-15.84,1.96-3.26,3.92-6.53,5.87-9.79.76-1.26,2.43-3.17,2.43-4.75,0-1.45-1.15-2.37-2.5-2.5-5.81-.57-11.62-1.03-17.46-1.08-3.22-.03-3.22,4.97,0,5,5.84.05,11.65.51,17.46,1.08l-2.5-2.5c0-1.75.38-1.09-.44.05-.76,1.06-1.37,2.29-2.04,3.41-1.97,3.28-3.94,6.56-5.91,9.84-2.91,4.85-5.82,9.7-8.73,14.55h4.32c-2.91-4.85-5.82-9.7-8.72-14.55-1.97-3.28-3.93-6.56-5.9-9.84-.64-1.06-1.22-2.2-1.93-3.22-.81-1.16-.55-2.1-.55-.24l-2.5,2.5c5.8-.57,11.61-1.03,17.45-1.08,3.22-.03,3.23-5.03,0-5Z"/>
    </g>
    <path class="cls-2" d="m1957.48,664.98c0-3.5-2.84-6.33-6.33-6.33s-6.33,2.84-6.33,6.33,2.84,6.33,6.33,6.33,6.33-2.84,6.33-6.33Z"/>
    <path class="cls-13" d="m1985.3,629.33c0-1.9-1.54-3.43-3.43-3.43s-3.43,1.54-3.43,3.43,1.54,3.43,3.43,3.43c1.9,0,3.43-1.54,3.43-3.43Z"/>
    <path class="cls-13" d="m1923.91,629.33c0-1.9-1.54-3.43-3.43-3.43s-3.43,1.54-3.43,3.43,1.54,3.43,3.43,3.43c1.9,0,3.43-1.54,3.43-3.43Z"/>
  </g>
  <g>
    <g>
      <path class="cls-14" d="m1951.15,409.41c14.27,0,38.04,3.72,38.04,3.72,10.24-6.22,23.11-12.49,34.75-12.44,2.56,12.07,2.21,26.65-1.83,40.97,0,0,3.29,18.29,17.92,23.78,0,0-4.98,4.66-13.9,6.22,0,0,7.03,4.67,11.34,6.22-14.74,11.3-36.95,40.31-86.33,40.31s-76.16-33.03-86.33-40.31c4.3-1.55,11.34-6.22,11.34-6.22-8.92-1.55-13.9-6.22-13.9-6.22,14.63-5.49,17.92-23.78,17.92-23.78-4.04-14.32-4.39-28.9-1.83-40.97,6.22-.73,24.51,6.22,34.75,12.44,0,0,23.78-3.72,38.04-3.72Z"/>
      <path class="cls-13" d="m1951.15,411.91c11.82.08,23.67,1.6,35.35,3.33,4.57.67,7.22-1.98,11.3-4.12,8.12-4.26,16.87-7.74,26.14-7.92-.8-.61-1.61-1.22-2.41-1.83,1.99,9.97,2.01,20.28.29,30.29-.8,4.67-2.79,8.72-1.46,13.33,2.9,10.04,9.14,18.85,19.01,22.87-.37-1.39-.73-2.79-1.1-4.18-3.46,3.14-8.34,4.68-12.8,5.58-2.24.45-2.26,3.47-.6,4.57,3.78,2.49,7.72,4.81,11.94,6.47-.37-1.39-.73-2.79-1.1-4.18-7.64,5.93-14.38,12.92-22.11,18.74-11.04,8.32-23.4,14.58-36.86,17.88-30.99,7.6-62.94.26-88.44-18.45-7.8-5.72-14.42-12.88-22.22-18.57-.2,1.52-.4,3.05-.6,4.57,4.22-1.66,8.15-3.98,11.94-6.47,1.66-1.09,1.64-4.12-.6-4.57-4.46-.89-9.34-2.44-12.8-5.58-.37,1.39-.74,2.79-1.1,4.18,9.87-4.02,16.11-12.83,19.01-22.87,1.33-4.61-.66-8.66-1.46-13.33-1.72-10.02-1.7-20.32.29-30.29-.8.61-1.61,1.22-2.41,1.83,6.15-.45,12.96,2.57,18.55,4.8,3.97,1.59,7.88,3.38,11.65,5.41,1.98,1.07,3.31,2.17,5.55,2.08,4.83-.2,9.79-1.39,14.59-1.95,7.45-.86,14.95-1.58,22.46-1.63,3.22-.02,3.22-5.02,0-5-7.51.05-15.01.77-22.46,1.63-3.13.36-6.26.76-9.38,1.19-1.83.25-4.39,1.1-6.24.89-1.32-.15.97.35-.29-.59-1.57-1.16-3.61-1.97-5.35-2.81-3.44-1.68-6.96-3.2-10.53-4.57-5.65-2.18-12.34-4.9-18.53-4.46-1.04.08-2.19.72-2.41,1.83-1.52,7.59-2.04,15.31-1.5,23.04.28,3.95.8,7.9,1.55,11.78.42,2.14,1.72,4.81,1.64,6.79-.12,3.05-2.16,6.9-3.55,9.48-2.82,5.25-6.9,9.64-12.5,11.92-1.61.66-2.64,2.79-1.1,4.18,4.11,3.73,9.66,5.79,15,6.86-.2-1.52-.4-3.05-.6-4.57-3.4,2.24-6.95,4.47-10.74,5.97-2.08.82-2.4,3.25-.6,4.57,7.08,5.17,13.16,11.7,20.16,17.02,10.99,8.36,23.23,15.05,36.48,19.09,30.89,9.4,65.53,4.24,92.05-14.17,9.66-6.7,17.76-15.16,27.01-22.33,1.65-1.28.41-3.58-1.1-4.18-3.79-1.49-7.35-3.73-10.74-5.97-.2,1.52-.4,3.05-.6,4.57,5.34-1.07,10.9-3.14,15-6.86,1.53-1.39.51-3.52-1.1-4.18-5.59-2.28-9.67-6.67-12.5-11.92-1.41-2.61-3.42-6.41-3.55-9.48-.09-2,1.22-4.62,1.64-6.79.75-3.89,1.28-7.83,1.55-11.78.53-7.73.02-15.44-1.5-23.04-.21-1.05-1.37-1.86-2.41-1.83-7.83.15-15.26,2.4-22.39,5.56-4.12,1.83-8.04,4.83-12.21,6.37-.43.16,1.07.33-.28.48-.57.06-1.31-.19-1.87-.28-11.91-1.73-23.99-3.33-36.04-3.41-3.22-.02-3.22,4.98,0,5Z"/>
    </g>
    <g>
      <path class="cls-9" d="m1932.12,465.07c8.6-2.68,24.67-4.46,38.06,0,0,0-7.71,8.93-19.03,12.05-10.87-2.23-19.03-12.05-19.03-12.05Z"/>
      <path class="cls-13" d="m1932.78,467.48c11.79-3.51,24.98-3.68,36.73,0-.37-1.39-.73-2.79-1.1-4.18-3.85,4.38-11.22,10.78-17.24,11-6.13.23-13.52-6.54-17.29-11-2.08-2.46-5.6,1.09-3.54,3.54,1.94,2.3,4.26,4.32,6.65,6.14,3.58,2.72,9.39,6.73,14.15,6.65,4.64-.08,10.53-4.19,14.08-6.82,2.4-1.77,4.75-3.72,6.72-5.97,1.25-1.43.76-3.59-1.1-4.18-12.57-3.94-26.78-3.75-39.39,0-3.08.91-1.77,5.74,1.33,4.82Z"/>
    </g>
    <path class="cls-13" d="m1948.65,477.12v8.03c0,3.22,5,3.22,5,0v-8.03c0-3.22-5-3.22-5,0h0Z"/>
    <g>
      <path class="cls-9" d="m1901.77,419.99c-4.88-4.46-13.82-6.7-13.82-6.7,0,0-1.57,10.04,1.34,19.42,0,0,5.75-7.81,12.48-12.72Z"/>
      <path class="cls-13" d="m1903.54,418.22c-4.22-3.62-9.56-5.96-14.92-7.34-1.19-.3-2.87.39-3.08,1.75-1.03,6.88-.58,14.07,1.34,20.74.64,2.23,3.33,2.26,4.57.6,3.26-4.39,7.22-8.53,11.58-11.82,2.53-1.92.04-6.26-2.52-4.32-5.1,3.86-9.56,8.49-13.37,13.62,1.52.2,3.05.4,4.57.6-1.63-5.68-2.14-12.73-1.34-18.09-1.03.58-2.05,1.16-3.08,1.75,4.5,1.15,9.16,3.01,12.71,6.05,2.43,2.09,5.98-1.44,3.54-3.53Z"/>
    </g>
    <g>
      <g>
        <path class="cls-19" d="m1963.71,539.57h-25.13c-4.33,0-7.84-3.51-7.84-7.84v-36.16c0-4.33,3.51-7.84,7.84-7.84h25.13c4.33,0,7.84,3.51,7.84,7.84v36.16c0,4.33-3.51,7.84-7.84,7.84Z"/>
        <path class="cls-13" d="m1963.71,537.07h-13.55c-3.88,0-11.22,1.37-14.63-1.05-3.41-2.41-2.28-8.89-2.28-12.52v-18.85c0-3.36-1.04-9.2,1.05-12.14,2.65-3.74,10.95-2.28,14.88-2.28,4.74,0,9.77-.5,14.49,0,6.38.67,5.39,6.93,5.39,11.56v20.42c0,4.9,1.74,14.29-5.34,14.86-3.18.26-3.21,5.26,0,5,7.49-.6,10.34-6.14,10.34-12.93v-20.84c0-4.7.71-10.01-.19-14.66-1.53-7.9-8.78-8.4-15.25-8.4-10.18,0-29.98-3.96-30.37,11.18-.3,11.64-.7,23.66,0,35.28.52,8.66,7.49,10.38,14.64,10.38h20.82c3.22,0,3.22-5,0-5Z"/>
      </g>
      <g>
        <path class="cls-17" d="m1930.75,505.38v-10.8c0-1.95,3.87-6.84,8.65-6.84h23.51c4.78,0,8.65,4.89,8.65,6.84v10.8"/>
        <path class="cls-13" d="m1933.25,505.38c0-4.49-1.64-11.05,2.7-13.92,3.84-2.55,10.89-1.22,15.2-1.22s10.82-1.25,14.67.91c4.96,2.77,3.23,9.47,3.23,14.24,0,3.22,5,3.22,5,0,0-6.11,1.41-12.67-3.71-17.12-5.1-4.43-12.96-3.03-19.2-3.03s-14.11-1.4-19.2,3.03c-5.12,4.46-3.71,10.99-3.71,17.12,0,3.22,5,3.22,5,0h0Z"/>
      </g>
      <g>
        <path class="cls-11" d="m1971.55,523.03v14.11c0,1.95-3.87,3.53-8.65,3.53h-23.51c-4.78,0-8.65-1.58-8.65-3.53v-14.11c12.13-9.19,32.72-6.98,40.81,0Z"/>
        <path class="cls-13" d="m1969.05,523.03v7.06c0,1.35.65,6.06-.12,6.92-2.42,2.7-14.58,1.17-17.78,1.17-2.54,0-15.99,1.44-17.66-1.22-.72-1.14-.24-5.05-.24-6.87v-7.06c-.41.72-.83,1.44-1.24,2.16,10.06-7.2,27.7-8.55,37.78-.39,2.48,2.01,6.04-1.51,3.54-3.54-8.83-7.15-22.18-8.28-32.88-5.5-3.66.95-11.33,3.11-12.19,7.35-.72,3.51,0,7.86,0,11.45s.47,5.79,4.07,7.36c3.35,1.47,7.17,1.25,10.75,1.25,7.62,0,16,1.01,23.54-.32,4.73-.84,7.37-2.82,7.45-7.57.07-4.08,0-8.17,0-12.26,0-3.22-5-3.22-5,0Z"/>
      </g>
      <path class="cls-13" d="m1965.19,537.07h-13.55c-4.58,0-9.9.78-14.42,0-5.4-.93-3.98-7.73-3.98-11.74v-19.9c0-3.56-.64-7.8,0-11.32,1.04-5.71,10.31-3.88,14.51-3.88,5.46,0,11.32-.62,16.75,0,5.47.62,4.55,5.39,4.55,9.43v21.29c0,3.86,2.01,15.53-3.87,16.12-3.17.32-3.2,5.32,0,5,7.48-.75,8.87-6.42,8.87-12.75v-22.49c0-4.72,1.14-11.29-.59-15.87-2.54-6.75-9.94-5.72-15.71-5.72-6.69,0-13.43-.26-20.11,0-6.51.25-9.34,4.84-9.4,10.83-.13,12.25-.89,24.91,0,37.12.67,9.2,8.92,8.88,15.86,8.88h21.08c3.22,0,3.22-5,0-5Z"/>
    </g>
    <g>
      <path class="cls-18" d="m1893.21,463.61v27.02c0,3.22,5,3.22,5,0v-27.02c0-3.22-5-3.22-5,0h0Z"/>
      <path class="cls-18" d="m1906.07,477.12v13.51c0,3.22,5,3.22,5,0v-13.51c0-3.22-5-3.22-5,0h0Z"/>
    </g>
    <g>
      <path class="cls-13" d="m1918.43,455.57c3.22,0,3.22-5,0-5s-3.22,5,0,5h0Z"/>
      <path class="cls-13" d="m1983.87,455.57c3.22,0,3.22-5,0-5s-3.22,5,0,5h0Z"/>
    </g>
    <g>
      <path class="cls-18" d="m1904.3,461.66c0-4.44-8.04-12.03-8.04-12.03,0,0-8.04,7.59-8.04,12.03s3.6,8.05,8.04,8.05,8.04-3.6,8.04-8.05Z"/>
      <path class="cls-13" d="m1906.8,461.66c-.44-5.43-5.01-10.21-8.78-13.8-.99-.95-2.54-.95-3.54,0-4.98,4.75-11.55,11.93-7.34,19.12,5.53,9.44,18.97,4.84,19.65-5.32.22-3.21-4.78-3.2-5,0-.6,8.97-14.23,5.36-10.28-2.3,1.54-3,4.08-5.65,6.5-7.96h-3.54c2.64,2.51,7,6.45,7.31,10.27.26,3.19,5.26,3.21,5,0Z"/>
    </g>
    <g>
      <path class="cls-16" d="m1951.15,409.64c-5.11,0-11.42.47-17.45,1.08h0s17.45,29.12,17.45,29.12l17.46-29.11h0c-6.02-.62-12.35-1.09-17.46-1.09Z"/>
      <path class="cls-13" d="m1951.15,407.14c-5.83.05-11.64.51-17.45,1.08-1.35.13-2.5,1.04-2.5,2.5,0,1.58,1.68,3.5,2.43,4.75,1.96,3.26,3.91,6.53,5.87,9.79,3.16,5.28,6.33,10.56,9.49,15.84.97,1.62,3.35,1.62,4.32,0,3.17-5.28,6.33-10.56,9.5-15.84,1.96-3.26,3.92-6.53,5.87-9.79.76-1.26,2.43-3.17,2.43-4.75,0-1.45-1.15-2.37-2.5-2.5-5.81-.57-11.62-1.03-17.46-1.08-3.22-.03-3.22,4.97,0,5,5.84.05,11.65.51,17.46,1.08l-2.5-2.5c0-1.75.38-1.09-.44.05-.76,1.06-1.37,2.29-2.04,3.4-1.97,3.28-3.94,6.56-5.91,9.84-2.91,4.85-5.82,9.7-8.73,14.55h4.32c-2.91-4.85-5.82-9.7-8.72-14.55-1.97-3.28-3.93-6.56-5.9-9.84-.64-1.06-1.22-2.2-1.93-3.21-.81-1.16-.55-2.1-.55-.24l-2.5,2.5c5.8-.57,11.61-1.03,17.45-1.08,3.22-.03,3.23-5.03,0-5Z"/>
    </g>
    <g>
      <path class="cls-9" d="m2000.5,419.99c4.88-4.46,13.82-6.7,13.82-6.7,0,0,1.57,10.04-1.34,19.42,0,0-5.75-7.81-12.48-12.72Z"/>
      <path class="cls-13" d="m2002.27,421.76c3.55-3.04,8.22-4.9,12.71-6.05-1.03-.58-2.05-1.16-3.08-1.75.8,5.35.29,12.42-1.34,18.09,1.52-.2,3.05-.4,4.57-.6-3.81-5.13-8.28-9.76-13.37-13.62-2.57-1.94-5.06,2.4-2.52,4.32,4.36,3.3,8.32,7.43,11.58,11.82,1.24,1.66,3.93,1.62,4.57-.6,1.92-6.68,2.37-13.86,1.34-20.74-.2-1.35-1.9-2.05-3.08-1.75-5.36,1.37-10.7,3.72-14.92,7.34-2.45,2.1,1.11,5.62,3.54,3.53Z"/>
    </g>
  </g>
  <g>
    <g>
      <path class="cls-14" d="m1522.48,581.76c14.27,0,38.04,3.72,38.04,3.72,10.24-6.22,23.11-12.49,34.75-12.44,2.56,12.07,2.21,26.65-1.83,40.97,0,0,3.29,18.29,17.92,23.78,0,0-4.98,4.66-13.9,6.22,0,0,7.04,4.67,11.34,6.22-14.74,11.3-36.95,40.31-86.33,40.31s-76.16-33.03-86.33-40.31c4.31-1.55,11.34-6.22,11.34-6.22-8.92-1.55-13.9-6.22-13.9-6.22,14.63-5.49,17.92-23.78,17.92-23.78-4.04-14.32-4.39-28.9-1.83-40.97,6.22-.73,24.51,6.22,34.75,12.44,0,0,23.78-3.72,38.04-3.72Z"/>
      <path class="cls-13" d="m1522.48,584.26c11.82.08,23.67,1.6,35.35,3.33,4.57.67,7.22-1.98,11.3-4.12,8.12-4.26,16.87-7.74,26.14-7.92-.8-.61-1.61-1.22-2.41-1.84,1.99,9.97,2.01,20.28.29,30.29-.8,4.67-2.79,8.72-1.46,13.33,2.9,10.04,9.14,18.85,19.01,22.87-.37-1.39-.73-2.79-1.1-4.18-3.46,3.14-8.34,4.68-12.8,5.58-2.24.45-2.26,3.47-.6,4.57,3.78,2.49,7.72,4.81,11.94,6.47-.37-1.39-.73-2.79-1.1-4.18-7.64,5.93-14.38,12.92-22.11,18.74-11.04,8.32-23.4,14.58-36.86,17.88-30.99,7.6-62.94.26-88.44-18.45-7.8-5.72-14.43-12.88-22.22-18.57-.2,1.52-.4,3.05-.6,4.57,4.22-1.66,8.15-3.98,11.94-6.47,1.66-1.09,1.64-4.12-.6-4.57-4.46-.9-9.34-2.44-12.8-5.58-.37,1.39-.74,2.79-1.1,4.18,9.87-4.02,16.11-12.83,19.01-22.87,1.33-4.61-.66-8.66-1.46-13.33-1.72-10.02-1.7-20.32.29-30.29-.8.61-1.61,1.22-2.41,1.84,6.15-.45,12.96,2.57,18.55,4.8,3.98,1.59,7.88,3.38,11.65,5.41,1.98,1.07,3.31,2.17,5.55,2.08,4.83-.2,9.79-1.39,14.59-1.95,7.45-.86,14.95-1.58,22.46-1.63,3.22-.02,3.22-5.02,0-5-7.51.05-15.01.77-22.46,1.63-3.13.36-6.26.76-9.38,1.19-1.82.25-4.39,1.1-6.24.89-1.32-.15.98.35-.29-.59-1.57-1.16-3.61-1.97-5.35-2.81-3.44-1.68-6.96-3.2-10.53-4.57-5.65-2.18-12.34-4.9-18.53-4.46-1.04.08-2.19.72-2.41,1.84-1.52,7.59-2.04,15.31-1.5,23.04.28,3.95.8,7.9,1.55,11.78.42,2.14,1.72,4.81,1.64,6.78-.12,3.05-2.16,6.9-3.55,9.48-2.82,5.25-6.9,9.64-12.5,11.91-1.61.66-2.64,2.79-1.1,4.18,4.11,3.73,9.66,5.79,15,6.86-.2-1.52-.4-3.05-.6-4.57-3.4,2.24-6.95,4.47-10.74,5.97-2.08.82-2.4,3.25-.6,4.57,7.08,5.17,13.16,11.7,20.15,17.02,10.99,8.36,23.23,15.05,36.47,19.09,30.88,9.4,65.54,4.24,92.05-14.17,9.65-6.7,17.76-15.16,27.01-22.33,1.65-1.28.42-3.58-1.1-4.18-3.79-1.49-7.35-3.73-10.74-5.97-.2,1.52-.4,3.05-.6,4.57,5.34-1.07,10.9-3.14,15-6.86,1.54-1.39.51-3.52-1.1-4.18-5.59-2.28-9.67-6.67-12.5-11.91-1.4-2.61-3.42-6.41-3.55-9.48-.08-2,1.23-4.62,1.64-6.78.75-3.89,1.28-7.83,1.55-11.78.53-7.73.02-15.44-1.5-23.04-.21-1.05-1.37-1.86-2.41-1.84-7.83.15-15.26,2.4-22.39,5.56-4.12,1.83-8.04,4.83-12.21,6.37-.43.16,1.07.34-.28.47-.57.06-1.31-.19-1.87-.28-11.91-1.73-23.99-3.33-36.04-3.41-3.22-.02-3.22,4.98,0,5Z"/>
    </g>
    <g>
      <path class="cls-9" d="m1503.45,637.42c8.6-2.68,24.67-4.46,38.06,0,0,0-7.71,8.93-19.03,12.05-10.87-2.23-19.03-12.05-19.03-12.05Z"/>
      <path class="cls-13" d="m1504.12,639.83c11.79-3.51,24.98-3.68,36.73,0-.37-1.39-.74-2.79-1.1-4.18-3.85,4.38-11.22,10.78-17.24,11-6.13.23-13.52-6.54-17.29-11-2.08-2.46-5.6,1.09-3.54,3.54,1.94,2.3,4.26,4.32,6.65,6.14,3.58,2.72,9.39,6.73,14.15,6.65,4.64-.08,10.53-4.19,14.08-6.82,2.4-1.77,4.75-3.72,6.72-5.97,1.25-1.43.76-3.59-1.1-4.18-12.57-3.94-26.78-3.75-39.39,0-3.08.91-1.77,5.74,1.33,4.82Z"/>
    </g>
    <path class="cls-13" d="m1519.98,649.47v8.03c0,3.22,5,3.22,5,0v-8.03c0-3.22-5-3.22-5,0h0Z"/>
    <g>
      <path class="cls-9" d="m1571.83,592.34c4.88-4.46,13.82-6.7,13.82-6.7,0,0,1.57,10.04-1.34,19.42,0,0-5.75-7.81-12.48-12.72Z"/>
      <path class="cls-13" d="m1573.6,594.11c3.55-3.04,8.21-4.9,12.71-6.05-1.02-.58-2.05-1.16-3.07-1.75.8,5.35.29,12.42-1.34,18.09,1.52-.2,3.05-.4,4.57-.6-3.81-5.13-8.28-9.76-13.37-13.62-2.57-1.94-5.06,2.4-2.52,4.32,4.36,3.3,8.32,7.43,11.58,11.82,1.24,1.66,3.93,1.62,4.57-.6,1.92-6.68,2.37-13.86,1.34-20.74-.2-1.35-1.9-2.05-3.07-1.75-5.36,1.37-10.7,3.72-14.92,7.34-2.45,2.1,1.1,5.62,3.54,3.53Z"/>
    </g>
    <g>
      <path class="cls-9" d="m1473.1,592.34c-4.88-4.46-13.82-6.7-13.82-6.7,0,0-1.57,10.04,1.34,19.42,0,0,5.76-7.81,12.48-12.72Z"/>
      <path class="cls-13" d="m1474.87,590.57c-4.22-3.62-9.56-5.97-14.92-7.34-1.19-.3-2.87.39-3.07,1.75-1.03,6.88-.58,14.07,1.34,20.74.64,2.23,3.33,2.26,4.57.6,3.26-4.39,7.22-8.53,11.58-11.82,2.53-1.92.04-6.26-2.52-4.32-5.1,3.86-9.56,8.49-13.37,13.62,1.52.2,3.05.4,4.57.6-1.63-5.68-2.14-12.73-1.34-18.09-1.03.58-2.05,1.16-3.07,1.75,4.5,1.15,9.16,3.01,12.71,6.05,2.43,2.09,5.98-1.44,3.54-3.53Z"/>
    </g>
    <g>
      <path class="cls-16" d="m1522.46,581.99c-5.11,0-11.43.47-17.45,1.08h0s17.45,29.12,17.45,29.12l17.46-29.11h0c-6.02-.62-12.35-1.09-17.46-1.09Z"/>
      <path class="cls-13" d="m1522.46,579.49c-5.83.05-11.64.51-17.45,1.08-1.35.13-2.5,1.04-2.5,2.5,0,1.58,1.68,3.5,2.43,4.75,1.96,3.26,3.91,6.53,5.87,9.79,3.16,5.28,6.33,10.56,9.49,15.84.97,1.62,3.35,1.62,4.32,0,3.17-5.28,6.33-10.56,9.5-15.84,1.96-3.26,3.92-6.53,5.87-9.79.76-1.26,2.43-3.17,2.43-4.75,0-1.45-1.15-2.37-2.5-2.5-5.81-.57-11.62-1.03-17.46-1.08-3.22-.03-3.22,4.97,0,5,5.84.05,11.65.51,17.46,1.08-.83-.83-1.67-1.67-2.5-2.5,0-1.75.38-1.09-.44.05-.76,1.06-1.37,2.29-2.04,3.41-1.97,3.28-3.94,6.56-5.9,9.84-2.91,4.85-5.82,9.7-8.73,14.55h4.32c-2.91-4.85-5.82-9.7-8.72-14.55-1.97-3.28-3.93-6.56-5.9-9.84-.64-1.06-1.22-2.2-1.93-3.22-.81-1.16-.55-2.1-.55-.24-.83.83-1.67,1.67-2.5,2.5,5.8-.57,11.61-1.03,17.45-1.08,3.22-.03,3.23-5.03,0-5Z"/>
    </g>
    <path class="cls-4" d="m1473.32,609.82c6.24-6.24,16.37-6.24,22.61,0"/>
    <path class="cls-4" d="m1545.64,609.82c6.24-6.24,16.37-6.24,22.61,0"/>
    <path class="cls-4" d="m1533.77,655.19c-6.24,6.24-16.37,6.24-22.61,0"/>
    <polyline class="cls-3" points="1493.78 632.99 1493.78 626.32 1476.16 626.32"/>
    <polyline class="cls-3" points="1565.76 632.99 1565.76 626.32 1548.14 626.32"/>
  </g>
  <g>
    <g>
      <path class="cls-14" d="m1736.74,409.41c14.27,0,38.04,3.72,38.04,3.72,10.24-6.22,23.11-12.49,34.75-12.44,2.56,12.07,2.21,26.65-1.83,40.97,0,0,3.29,18.29,17.92,23.78,0,0-4.98,4.66-13.9,6.22,0,0,7.04,4.67,11.34,6.22-14.74,11.3-36.95,40.31-86.33,40.31s-76.16-33.03-86.33-40.31c4.3-1.55,11.34-6.22,11.34-6.22-8.92-1.55-13.9-6.22-13.9-6.22,14.63-5.49,17.92-23.78,17.92-23.78-4.04-14.32-4.39-28.9-1.83-40.97,6.22-.73,24.51,6.22,34.75,12.44,0,0,23.78-3.72,38.04-3.72Z"/>
      <path class="cls-13" d="m1736.74,411.91c11.82.08,23.67,1.6,35.35,3.33,4.57.67,7.22-1.98,11.3-4.12,8.12-4.26,16.87-7.74,26.14-7.92-.8-.61-1.61-1.22-2.41-1.83,1.99,9.97,2.01,20.28.29,30.29-.8,4.67-2.79,8.72-1.46,13.33,2.9,10.04,9.14,18.85,19.01,22.87-.37-1.39-.73-2.79-1.1-4.18-3.46,3.14-8.34,4.68-12.8,5.58-2.24.45-2.26,3.47-.6,4.57,3.78,2.49,7.72,4.81,11.94,6.47-.37-1.39-.73-2.79-1.1-4.18-7.64,5.93-14.38,12.92-22.11,18.74-11.04,8.32-23.4,14.58-36.86,17.88-30.99,7.6-62.94.26-88.44-18.45-7.8-5.72-14.42-12.88-22.21-18.57-.2,1.52-.4,3.05-.6,4.57,4.22-1.66,8.15-3.98,11.94-6.47,1.66-1.09,1.64-4.12-.6-4.57-4.46-.89-9.34-2.44-12.8-5.58-.37,1.39-.73,2.79-1.1,4.18,9.87-4.02,16.11-12.83,19.01-22.87,1.33-4.61-.66-8.66-1.46-13.33-1.72-10.02-1.7-20.32.29-30.29-.8.61-1.61,1.22-2.41,1.83,6.15-.45,12.96,2.57,18.55,4.8,3.98,1.59,7.88,3.38,11.65,5.41,1.98,1.07,3.31,2.17,5.55,2.08,4.83-.2,9.79-1.39,14.59-1.95,7.45-.86,14.95-1.58,22.46-1.63,3.22-.02,3.22-5.02,0-5-7.51.05-15,.77-22.46,1.63-3.13.36-6.26.76-9.38,1.19-1.83.25-4.39,1.1-6.24.89-1.32-.15.98.35-.3-.59-1.57-1.16-3.61-1.97-5.35-2.81-3.44-1.68-6.96-3.2-10.53-4.57-5.65-2.18-12.34-4.9-18.53-4.46-1.04.08-2.19.72-2.41,1.83-1.52,7.59-2.04,15.31-1.5,23.04.27,3.95.8,7.9,1.55,11.78.42,2.14,1.72,4.81,1.64,6.79-.12,3.05-2.16,6.9-3.55,9.48-2.82,5.25-6.9,9.64-12.5,11.92-1.61.66-2.64,2.79-1.1,4.18,4.11,3.73,9.66,5.79,15,6.86-.2-1.52-.4-3.05-.6-4.57-3.4,2.24-6.95,4.47-10.74,5.97-2.08.82-2.4,3.25-.6,4.57,7.08,5.17,13.16,11.7,20.16,17.02,10.99,8.36,23.23,15.05,36.48,19.09,30.89,9.4,65.53,4.24,92.05-14.17,9.65-6.7,17.76-15.16,27.01-22.33,1.65-1.28.42-3.58-1.1-4.18-3.79-1.49-7.35-3.73-10.74-5.97-.2,1.52-.4,3.05-.6,4.57,5.34-1.07,10.9-3.14,15-6.86,1.54-1.39.51-3.52-1.1-4.18-5.59-2.28-9.67-6.67-12.5-11.92-1.4-2.61-3.42-6.41-3.55-9.48-.08-2,1.23-4.62,1.64-6.79.75-3.89,1.28-7.83,1.55-11.78.53-7.73.02-15.44-1.5-23.04-.21-1.05-1.37-1.86-2.41-1.83-7.83.15-15.26,2.4-22.39,5.56-4.12,1.83-8.04,4.83-12.21,6.37-.43.16,1.07.33-.28.48-.57.06-1.31-.19-1.87-.28-11.91-1.73-23.99-3.33-36.05-3.41-3.22-.02-3.22,4.98,0,5Z"/>
    </g>
    <g>
      <path class="cls-9" d="m1717.71,465.07c8.6-2.68,24.67-4.46,38.06,0,0,0-7.71,8.93-19.03,12.05-10.87-2.23-19.03-12.05-19.03-12.05Z"/>
      <path class="cls-13" d="m1718.37,467.48c11.79-3.51,24.98-3.68,36.73,0-.37-1.39-.73-2.79-1.1-4.18-3.85,4.38-11.22,10.78-17.24,11-6.13.23-13.52-6.54-17.29-11-2.08-2.46-5.6,1.09-3.54,3.54,1.94,2.3,4.26,4.32,6.65,6.14,3.58,2.72,9.39,6.73,14.15,6.65,4.64-.08,10.53-4.19,14.08-6.82,2.4-1.77,4.75-3.72,6.72-5.97,1.25-1.43.76-3.59-1.1-4.18-12.57-3.94-26.78-3.75-39.39,0-3.08.91-1.77,5.74,1.33,4.82Z"/>
    </g>
    <path class="cls-13" d="m1734.24,477.12v11.55c0,3.22,5,3.22,5,0v-11.55c0-3.22-5-3.22-5,0h0Z"/>
    <g>
      <path class="cls-9" d="m1786.09,419.99c4.88-4.46,13.82-6.7,13.82-6.7,0,0,1.57,10.04-1.34,19.42,0,0-5.75-7.81-12.48-12.72Z"/>
      <path class="cls-13" d="m1787.86,421.76c3.55-3.04,8.21-4.9,12.71-6.05-1.02-.58-2.05-1.16-3.08-1.75.8,5.35.29,12.42-1.34,18.09,1.52-.2,3.05-.4,4.57-.6-3.81-5.13-8.28-9.76-13.37-13.62-2.57-1.94-5.06,2.4-2.52,4.32,4.36,3.3,8.32,7.43,11.58,11.82,1.24,1.66,3.93,1.62,4.57-.6,1.92-6.68,2.37-13.86,1.34-20.74-.2-1.35-1.89-2.05-3.08-1.75-5.36,1.37-10.7,3.72-14.92,7.34-2.45,2.1,1.1,5.62,3.54,3.53Z"/>
    </g>
    <g>
      <path class="cls-9" d="m1687.36,419.99c-4.88-4.46-13.82-6.7-13.82-6.7,0,0-1.57,10.04,1.34,19.42,0,0,5.75-7.81,12.48-12.72Z"/>
      <path class="cls-13" d="m1689.13,418.22c-4.22-3.62-9.56-5.96-14.92-7.34-1.19-.3-2.87.39-3.08,1.75-1.03,6.88-.58,14.07,1.34,20.74.64,2.23,3.33,2.26,4.57.6,3.26-4.39,7.22-8.53,11.58-11.82,2.53-1.92.05-6.26-2.52-4.32-5.1,3.86-9.56,8.49-13.37,13.62,1.52.2,3.05.4,4.57.6-1.63-5.68-2.14-12.73-1.34-18.09-1.02.58-2.05,1.16-3.08,1.75,4.5,1.15,9.17,3.01,12.71,6.05,2.43,2.09,5.98-1.44,3.54-3.53Z"/>
    </g>
    <path class="cls-4" d="m1750.75,485.49c-7.76,7.76-20.35,7.76-28.11,0"/>
    <g>
      <path class="cls-4" d="m1757.44,486.34c-3.56,0-6.45-2.89-6.45-6.45"/>
      <path class="cls-4" d="m1722.35,479.89c0,3.56-2.89,6.45-6.45,6.45"/>
    </g>
    <g>
      <path class="cls-4" d="m1691.86,458.81c0-4.4,3.57-7.97,7.97-7.97s7.97,3.57,7.97,7.97"/>
      <path class="cls-4" d="m1765.68,458.81c0-4.4,3.57-7.97,7.97-7.97s7.97,3.57,7.97,7.97"/>
    </g>
    <g>
      <path class="cls-16" d="m1736.72,409.64c-5.11,0-11.43.47-17.45,1.08h0s17.45,29.12,17.45,29.12l17.46-29.11h0c-6.02-.62-12.35-1.09-17.46-1.09Z"/>
      <path class="cls-13" d="m1736.72,407.14c-5.83.05-11.64.51-17.45,1.08-1.35.13-2.5,1.04-2.5,2.5,0,1.58,1.68,3.5,2.43,4.75,1.96,3.26,3.91,6.53,5.87,9.79,3.16,5.28,6.33,10.56,9.49,15.84.97,1.62,3.35,1.62,4.32,0,3.17-5.28,6.33-10.56,9.5-15.84,1.96-3.26,3.92-6.53,5.87-9.79.76-1.26,2.43-3.17,2.43-4.75,0-1.45-1.15-2.37-2.5-2.5-5.81-.57-11.62-1.03-17.46-1.08-3.22-.03-3.22,4.97,0,5,5.84.05,11.65.51,17.46,1.08l-2.5-2.5c0-1.75.38-1.09-.44.05-.76,1.06-1.37,2.29-2.04,3.4-1.97,3.28-3.94,6.56-5.9,9.84-2.91,4.85-5.82,9.7-8.73,14.55h4.32c-2.91-4.85-5.82-9.7-8.72-14.55-1.97-3.28-3.93-6.56-5.9-9.84-.64-1.06-1.22-2.2-1.93-3.21-.81-1.16-.55-2.1-.55-.24l-2.5,2.5c5.8-.57,11.61-1.03,17.45-1.08,3.22-.03,3.23-5.03,0-5Z"/>
    </g>
  </g>
  <g>
    <g>
      <path class="cls-14" d="m1522.31,409.41c14.27,0,38.04,3.72,38.04,3.72,10.24-6.22,23.11-12.49,34.75-12.44,2.56,12.07,2.21,26.65-1.83,40.97,0,0,3.29,18.29,17.92,23.78,0,0-4.98,4.66-13.9,6.22,0,0,7.04,4.67,11.34,6.22-14.74,11.3-36.95,40.31-86.33,40.31s-76.16-33.03-86.33-40.31c4.31-1.55,11.34-6.22,11.34-6.22-8.92-1.55-13.9-6.22-13.9-6.22,14.63-5.49,17.92-23.78,17.92-23.78-4.04-14.32-4.39-28.9-1.83-40.97,6.22-.73,24.51,6.22,34.75,12.44,0,0,23.78-3.72,38.04-3.72Z"/>
      <path class="cls-13" d="m1522.31,411.91c11.82.08,23.67,1.6,35.35,3.33,4.57.67,7.22-1.98,11.3-4.12,8.12-4.26,16.87-7.74,26.14-7.92-.8-.61-1.61-1.22-2.41-1.83,1.99,9.97,2.01,20.28.29,30.29-.8,4.67-2.79,8.72-1.46,13.33,2.9,10.04,9.14,18.85,19.01,22.87-.37-1.39-.74-2.79-1.1-4.18-3.46,3.14-8.33,4.68-12.8,5.58-2.24.45-2.26,3.47-.6,4.57,3.78,2.49,7.72,4.81,11.94,6.47-.37-1.39-.74-2.79-1.1-4.18-7.64,5.93-14.38,12.92-22.11,18.74-11.04,8.32-23.4,14.58-36.86,17.88-30.99,7.6-62.94.26-88.44-18.45-7.8-5.72-14.43-12.88-22.22-18.57-.2,1.52-.4,3.05-.6,4.57,4.22-1.66,8.15-3.98,11.94-6.47,1.66-1.09,1.64-4.12-.6-4.57-4.46-.89-9.34-2.44-12.8-5.58-.37,1.39-.74,2.79-1.1,4.18,9.87-4.02,16.11-12.83,19.01-22.87,1.33-4.61-.66-8.66-1.46-13.33-1.72-10.02-1.7-20.32.29-30.29-.8.61-1.61,1.22-2.41,1.83,6.15-.45,12.96,2.57,18.55,4.8,3.98,1.59,7.88,3.38,11.65,5.41,1.98,1.07,3.31,2.17,5.55,2.08,4.83-.2,9.79-1.39,14.59-1.95,7.45-.86,14.95-1.58,22.46-1.63,3.22-.02,3.22-5.02,0-5-7.51.05-15.01.77-22.46,1.63-3.13.36-6.26.76-9.38,1.19-1.82.25-4.39,1.1-6.24.89-1.32-.15.98.35-.29-.59-1.57-1.16-3.61-1.97-5.35-2.81-3.44-1.68-6.96-3.2-10.53-4.57-5.65-2.18-12.34-4.9-18.53-4.46-1.04.08-2.19.72-2.41,1.83-1.52,7.59-2.04,15.31-1.5,23.04.28,3.95.8,7.9,1.55,11.78.42,2.14,1.72,4.81,1.64,6.79-.12,3.05-2.16,6.9-3.55,9.48-2.82,5.25-6.9,9.64-12.5,11.92-1.61.66-2.64,2.79-1.1,4.18,4.11,3.73,9.66,5.79,15,6.86-.2-1.52-.4-3.05-.6-4.57-3.4,2.24-6.95,4.47-10.74,5.97-2.08.82-2.4,3.25-.6,4.57,7.08,5.17,13.16,11.7,20.15,17.02,10.99,8.36,23.23,15.05,36.48,19.09,30.88,9.4,65.54,4.24,92.05-14.17,9.65-6.7,17.76-15.16,27.01-22.33,1.65-1.28.42-3.58-1.1-4.18-3.79-1.49-7.35-3.73-10.74-5.97-.2,1.52-.4,3.05-.6,4.57,5.34-1.07,10.9-3.14,15-6.86,1.54-1.39.51-3.52-1.1-4.18-5.59-2.28-9.67-6.67-12.5-11.92-1.4-2.61-3.42-6.41-3.55-9.48-.08-2,1.23-4.62,1.64-6.79.75-3.89,1.28-7.83,1.55-11.78.53-7.73.02-15.44-1.5-23.04-.21-1.05-1.37-1.86-2.41-1.83-7.83.15-15.26,2.4-22.39,5.56-4.12,1.83-8.04,4.83-12.21,6.37-.43.16,1.07.33-.28.48-.57.06-1.31-.19-1.87-.28-11.91-1.73-23.99-3.33-36.04-3.41-3.22-.02-3.22,4.98,0,5Z"/>
    </g>
    <g>
      <path class="cls-9" d="m1503.28,465.07c8.6-2.68,24.67-4.46,38.06,0,0,0-7.71,8.93-19.03,12.05-10.87-2.23-19.03-12.05-19.03-12.05Z"/>
      <path class="cls-13" d="m1503.95,467.48c11.79-3.51,24.98-3.68,36.73,0-.37-1.39-.74-2.79-1.1-4.18-3.85,4.38-11.22,10.78-17.24,11-6.13.23-13.52-6.54-17.29-11-2.08-2.46-5.6,1.09-3.54,3.54,1.94,2.3,4.26,4.32,6.65,6.14,3.58,2.72,9.39,6.73,14.15,6.65,4.64-.08,10.53-4.19,14.08-6.82,2.4-1.77,4.75-3.72,6.72-5.97,1.25-1.43.76-3.59-1.1-4.18-12.57-3.94-26.78-3.75-39.39,0-3.08.91-1.77,5.74,1.33,4.82Z"/>
    </g>
    <path class="cls-13" d="m1519.81,477.12v5.69c0,3.22,5,3.22,5,0v-5.69c0-3.22-5-3.22-5,0h0Z"/>
    <g>
      <path class="cls-9" d="m1571.66,419.99c4.88-4.46,13.82-6.7,13.82-6.7,0,0,1.57,10.04-1.34,19.42,0,0-5.75-7.81-12.48-12.72Z"/>
      <path class="cls-13" d="m1573.43,421.76c3.55-3.04,8.21-4.9,12.71-6.05-1.02-.58-2.05-1.16-3.07-1.75.8,5.35.29,12.42-1.34,18.09,1.52-.2,3.05-.4,4.57-.6-3.81-5.13-8.28-9.76-13.37-13.62-2.57-1.94-5.06,2.4-2.52,4.32,4.36,3.3,8.32,7.43,11.58,11.82,1.24,1.66,3.93,1.62,4.57-.6,1.92-6.68,2.37-13.86,1.34-20.74-.2-1.35-1.9-2.05-3.07-1.75-5.36,1.37-10.7,3.72-14.92,7.34-2.45,2.1,1.1,5.62,3.54,3.53Z"/>
    </g>
    <g>
      <path class="cls-9" d="m1472.93,421.72c-4.88-4.46-13.82-6.7-13.82-6.7,0,0-1.57,10.04,1.34,19.42,0,0,5.75-7.81,12.48-12.72Z"/>
      <path class="cls-13" d="m1474.7,419.96c-4.22-3.62-9.56-5.96-14.92-7.34-1.19-.3-2.87.39-3.07,1.75-1.03,6.88-.58,14.07,1.34,20.74.64,2.23,3.33,2.26,4.57.6,3.26-4.39,7.22-8.53,11.58-11.82,2.53-1.92.04-6.26-2.52-4.32-5.1,3.86-9.56,8.49-13.37,13.62,1.52.2,3.05.4,4.57.6-1.63-5.68-2.14-12.73-1.34-18.09-1.03.58-2.05,1.16-3.07,1.75,4.5,1.15,9.16,3.01,12.71,6.05,2.43,2.09,5.98-1.44,3.54-3.53Z"/>
    </g>
    <g>
      <path class="cls-16" d="m1522.31,409.64c-5.11,0-11.43.47-17.45,1.08h0s17.45,29.12,17.45,29.12l17.46-29.11h0c-6.02-.62-12.35-1.09-17.46-1.09Z"/>
      <path class="cls-13" d="m1522.31,407.14c-5.83.05-11.64.51-17.45,1.08-1.35.13-2.5,1.04-2.5,2.5,0,1.58,1.68,3.5,2.43,4.75,1.96,3.26,3.91,6.53,5.87,9.79,3.16,5.28,6.33,10.56,9.49,15.84.97,1.62,3.35,1.62,4.32,0,3.17-5.28,6.33-10.56,9.5-15.84,1.96-3.26,3.92-6.53,5.87-9.79.76-1.26,2.43-3.17,2.43-4.75,0-1.45-1.15-2.37-2.5-2.5-5.81-.57-11.62-1.03-17.46-1.08-3.22-.03-3.22,4.97,0,5,5.84.05,11.65.51,17.46,1.08-.83-.83-1.67-1.67-2.5-2.5,0-1.75.38-1.09-.44.05-.76,1.06-1.37,2.29-2.04,3.4-1.97,3.28-3.94,6.56-5.9,9.84-2.91,4.85-5.82,9.7-8.73,14.55h4.32c-2.91-4.85-5.82-9.7-8.72-14.55-1.97-3.28-3.93-6.56-5.9-9.84-.64-1.06-1.22-2.2-1.93-3.21-.81-1.16-.55-2.1-.55-.24-.83.83-1.67,1.67-2.5,2.5,5.8-.57,11.61-1.03,17.45-1.08,3.22-.03,3.23-5.03,0-5Z"/>
    </g>
    <g>
      <g>
        <path class="cls-1" d="m1543.14,484.58c0,11.53-9.34,20.87-20.87,20.87s-20.87-9.34-20.87-20.87h41.74Z"/>
        <path class="cls-5" d="m1535.59,500.65c-5.45-7.06-20.86-6.86-26.2.35,4.12,3.83,14.71,7.81,26.2-.35Z"/>
      </g>
      <g>
        <path class="cls-4" d="m1541.34,465.07c0-8.08,6.19-15.74,14.26-15.74s14.63,6.55,14.63,14.63"/>
        <path class="cls-4" d="m1474.29,463.96c0-8.08,6.55-14.63,14.63-14.63s14.36,7.66,14.36,15.74"/>
      </g>
    </g>
  </g>
  <g id="designed_by_freepik" data-name="designed by freepik">
    <g>
      <g>
        <path class="cls-12" d="m1632.1,777.67v-.24c-.32.37-.64.67-.96.91-.32.23-.66.41-1.02.53-.37.12-.77.18-1.21.18-.58,0-1.11-.12-1.61-.37-.49-.24-.92-.59-1.28-1.05-.36-.46-.63-.99-.82-1.6-.18-.61-.28-1.28-.28-1.99,0-1.51.37-2.69,1.11-3.53.74-.84,1.71-1.26,2.91-1.26.7,0,1.28.12,1.76.36.48.24.94.61,1.4,1.1v-3.57c0-.49.1-.87.3-1.12.2-.26.48-.38.84-.38s.65.12.85.35c.2.23.3.58.3,1.03v10.65c0,.46-.11.81-.32,1.04-.21.23-.48.34-.82.34s-.6-.12-.82-.36c-.22-.24-.33-.58-.33-1.02Zm-4.75-3.55c0,.65.1,1.21.31,1.67s.48.81.83,1.04c.36.23.74.35,1.16.35s.81-.11,1.16-.33c.35-.22.63-.56.84-1.02.21-.46.31-1.03.31-1.71,0-.64-.1-1.19-.31-1.66-.21-.46-.49-.81-.85-1.06-.36-.24-.75-.37-1.17-.37s-.84.13-1.19.38c-.35.25-.62.61-.81,1.08-.19.47-.29,1.01-.29,1.63Z"/>
        <path class="cls-12" d="m1642.75,774.73h-4.72c0,.55.12,1.03.33,1.45.21.42.5.73.86.95.36.21.75.32,1.18.32.29,0,.55-.03.79-.1.24-.07.47-.17.69-.32.23-.15.43-.3.62-.47.19-.17.43-.39.73-.67.12-.11.3-.16.53-.16.25,0,.45.07.6.2.15.14.23.33.23.58,0,.22-.09.47-.26.77-.17.29-.43.57-.77.84-.35.27-.78.49-1.3.67-.52.18-1.12.27-1.8.27-1.55,0-2.76-.45-3.62-1.33-.86-.88-1.29-2.08-1.29-3.6,0-.71.1-1.38.32-1.98.21-.61.52-1.13.93-1.57.41-.44.91-.77,1.5-1.01.6-.23,1.26-.35,1.98-.35.94,0,1.75.2,2.43.6.68.4,1.18.91,1.52,1.54.34.63.5,1.28.5,1.93,0,.61-.17,1-.52,1.18-.35.18-.84.27-1.47.27Zm-4.72-1.37h4.38c-.06-.83-.28-1.45-.67-1.85-.39-.41-.89-.61-1.52-.61s-1.1.21-1.48.62c-.39.42-.62,1.03-.7,1.85Z"/>
        <path class="cls-12" d="m1653.75,775.89c0,.67-.16,1.24-.49,1.71-.32.47-.8.84-1.44,1.08-.63.25-1.4.37-2.31.37s-1.61-.14-2.23-.4c-.62-.27-1.08-.6-1.37-.99-.3-.4-.44-.8-.44-1.2,0-.27.09-.49.28-.68.19-.19.43-.28.72-.28.25,0,.45.06.58.19s.27.3.39.52c.25.43.54.75.89.96.35.21.81.32,1.41.32.48,0,.88-.11,1.19-.32.31-.22.46-.46.46-.74,0-.42-.16-.73-.48-.93-.32-.2-.85-.38-1.59-.56-.83-.2-1.51-.42-2.03-.65-.52-.23-.94-.53-1.25-.9-.31-.37-.47-.83-.47-1.37,0-.48.14-.94.43-1.37.29-.43.71-.77,1.28-1.03.56-.26,1.24-.39,2.04-.39.62,0,1.19.07,1.68.2.5.13.92.3,1.25.52.33.22.59.46.76.73.17.26.26.52.26.78,0,.28-.09.5-.28.68-.18.18-.45.27-.79.27-.25,0-.46-.07-.63-.21-.17-.14-.37-.35-.6-.64-.18-.23-.4-.42-.65-.57-.25-.14-.58-.21-1.01-.21s-.8.09-1.09.28c-.29.18-.43.41-.43.69,0,.25.11.46.32.62.21.16.5.3.86.4.36.11.85.23,1.48.39.75.18,1.36.4,1.83.66.48.25.83.55,1.08.9.25.34.37.74.37,1.18Z"/>
        <path class="cls-12" d="m1656.22,768.11c-.34,0-.62-.1-.86-.31-.24-.21-.36-.5-.36-.88,0-.34.12-.62.36-.85.24-.22.53-.33.85-.33s.59.1.83.3c.24.2.36.49.36.88s-.12.66-.35.87c-.23.21-.51.31-.84.31Zm1.2,2.49v6.98c0,.48-.11.85-.35,1.1-.23.25-.52.37-.88.37s-.64-.13-.86-.38c-.22-.26-.33-.62-.33-1.09v-6.91c0-.48.11-.84.33-1.08.22-.24.51-.36.86-.36s.65.12.88.36c.23.24.35.58.35,1.01Z"/>
        <path class="cls-12" d="m1667.99,771v7.02c0,.8-.09,1.49-.26,2.07-.17.58-.44,1.06-.82,1.43-.38.38-.87.66-1.48.84-.61.18-1.37.28-2.28.28-.83,0-1.58-.12-2.23-.35-.65-.23-1.16-.53-1.51-.9-.35-.37-.53-.75-.53-1.14,0-.3.1-.54.3-.72s.44-.28.73-.28c.35,0,.66.15.93.47.13.16.26.32.4.48.14.16.29.3.46.42.17.11.37.2.61.26.24.05.51.08.81.08.62,0,1.11-.09,1.46-.26.35-.18.59-.42.72-.73.14-.31.22-.65.24-1,.02-.36.04-.93.05-1.72-.37.52-.8.92-1.29,1.18-.49.27-1.07.41-1.74.41-.81,0-1.51-.21-2.12-.62-.6-.41-1.07-.99-1.39-1.73-.32-.74-.49-1.6-.49-2.57,0-.72.1-1.38.3-1.96.2-.59.48-1.08.85-1.48.36-.4.79-.7,1.26-.91.48-.2,1-.3,1.58-.3.68,0,1.28.13,1.78.39.5.27.97.67,1.4,1.24v-.33c0-.42.1-.74.31-.97.21-.23.47-.35.8-.35.46,0,.77.15.93.46.15.3.23.74.23,1.31Zm-7,3.06c0,.98.21,1.72.64,2.22.43.5.98.75,1.66.75.4,0,.78-.11,1.14-.32s.65-.54.87-.97c.23-.43.34-.96.34-1.58,0-.98-.22-1.75-.65-2.3-.43-.55-1-.83-1.71-.83s-1.24.26-1.66.79c-.42.52-.62,1.27-.62,2.24Z"/>
        <path class="cls-12" d="m1671.83,770.57v.29c.42-.56.89-.97,1.39-1.23.5-.26,1.08-.4,1.74-.4s1.21.14,1.71.42c.5.28.88.67,1.12,1.17.16.29.26.62.31.96.05.34.07.78.07,1.31v4.49c0,.48-.11.85-.33,1.1-.22.25-.51.37-.86.37s-.65-.13-.88-.38c-.23-.26-.34-.62-.34-1.09v-4.02c0-.8-.11-1.41-.33-1.83-.22-.42-.66-.63-1.32-.63-.43,0-.82.13-1.18.38-.36.26-.61.61-.78,1.06-.12.36-.18,1.03-.18,2.02v3.02c0,.49-.11.86-.34,1.1-.23.25-.52.37-.88.37s-.63-.13-.86-.38c-.22-.26-.33-.62-.33-1.09v-6.98c0-.46.1-.81.3-1.03.2-.23.48-.34.82-.34.21,0,.4.05.58.15.17.1.31.25.41.45.1.2.15.45.15.74Z"/>
        <path class="cls-12" d="m1686.52,774.73h-4.72c0,.55.12,1.03.33,1.45.21.42.5.73.86.95.36.21.75.32,1.18.32.29,0,.55-.03.79-.1.24-.07.47-.17.7-.32.22-.15.43-.3.62-.47.19-.17.43-.39.73-.67.12-.11.3-.16.53-.16.25,0,.45.07.6.2.15.14.23.33.23.58,0,.22-.08.47-.26.77-.17.29-.43.57-.77.84-.35.27-.78.49-1.3.67-.52.18-1.12.27-1.8.27-1.55,0-2.76-.45-3.62-1.33-.86-.88-1.29-2.08-1.29-3.6,0-.71.11-1.38.32-1.98.21-.61.52-1.13.93-1.57.41-.44.91-.77,1.5-1.01.6-.23,1.26-.35,1.98-.35.94,0,1.75.2,2.43.6.68.4,1.18.91,1.52,1.54.34.63.51,1.28.51,1.93,0,.61-.17,1-.52,1.18-.34.18-.83.27-1.47.27Zm-4.72-1.37h4.38c-.06-.83-.28-1.45-.67-1.85s-.89-.61-1.52-.61-1.1.21-1.48.62c-.39.42-.62,1.03-.7,1.85Z"/>
        <path class="cls-12" d="m1696.36,777.67v-.24c-.32.37-.64.67-.96.91-.32.23-.66.41-1.03.53-.37.12-.77.18-1.2.18-.58,0-1.11-.12-1.61-.37-.49-.24-.92-.59-1.28-1.05-.36-.46-.63-.99-.82-1.6s-.28-1.28-.28-1.99c0-1.51.37-2.69,1.11-3.53.74-.84,1.71-1.26,2.91-1.26.7,0,1.28.12,1.76.36.48.24.94.61,1.4,1.1v-3.57c0-.49.1-.87.3-1.12.2-.26.48-.38.85-.38s.64.12.84.35c.2.23.3.58.3,1.03v10.65c0,.46-.11.81-.32,1.04-.21.23-.49.34-.82.34s-.6-.12-.82-.36c-.22-.24-.33-.58-.33-1.02Zm-4.75-3.55c0,.65.1,1.21.3,1.67s.48.81.84,1.04c.35.23.74.35,1.16.35s.81-.11,1.16-.33c.35-.22.63-.56.84-1.02.21-.46.31-1.03.31-1.71,0-.64-.11-1.19-.31-1.66-.21-.46-.49-.81-.85-1.06-.36-.24-.75-.37-1.17-.37s-.84.13-1.19.38c-.35.25-.62.61-.81,1.08-.19.47-.29,1.01-.29,1.63Z"/>
        <path class="cls-12" d="m1706.23,767.02v3.69c.45-.47.92-.83,1.39-1.08.47-.25,1.05-.38,1.75-.38.8,0,1.51.19,2.11.57.6.38,1.07.93,1.41,1.65.33.72.5,1.58.5,2.57,0,.73-.09,1.4-.28,2.01-.19.61-.46,1.14-.81,1.59-.35.45-.78.8-1.29,1.04-.51.25-1.06.37-1.67.37-.37,0-.72-.05-1.05-.14-.33-.09-.61-.2-.84-.35-.23-.15-.43-.29-.59-.44-.16-.15-.38-.39-.64-.69v.24c0,.45-.11.8-.33,1.03-.22.23-.49.35-.83.35s-.61-.12-.82-.35c-.2-.23-.3-.58-.3-1.03v-10.54c0-.49.1-.86.3-1.11.2-.25.48-.38.83-.38.37,0,.66.12.86.36.2.24.3.58.3,1.02Zm.12,7.17c0,.96.22,1.7.66,2.22.44.52,1.02.78,1.73.78.61,0,1.13-.26,1.57-.79.44-.53.66-1.28.66-2.27,0-.64-.09-1.19-.27-1.64-.18-.46-.44-.82-.78-1.07-.34-.25-.73-.38-1.18-.38s-.87.13-1.23.38c-.36.25-.64.61-.85,1.09-.2.47-.31,1.04-.31,1.69Z"/>
        <path class="cls-12" d="m1716.52,779.35l.22-.54-2.97-7.48c-.18-.43-.27-.74-.27-.93,0-.21.05-.4.16-.58.11-.18.25-.32.44-.42.19-.11.38-.16.58-.16.35,0,.61.11.79.33.18.22.33.54.47.95l2.05,5.94,1.94-5.53c.15-.45.29-.8.41-1.05.12-.26.26-.42.39-.51.14-.09.34-.14.59-.14.18,0,.36.05.52.15.17.1.3.23.39.4.09.16.14.34.14.52-.02.11-.06.27-.11.48-.05.21-.12.42-.19.63l-3.15,8.24c-.27.73-.54,1.29-.8,1.71-.26.41-.6.73-1.03.95-.43.22-1,.33-1.73.33s-1.24-.08-1.59-.23c-.36-.16-.53-.43-.53-.84,0-.28.08-.49.25-.64.17-.15.42-.23.74-.23.13,0,.26.02.38.06.15.03.29.05.4.05.28,0,.5-.04.65-.12.16-.08.3-.22.43-.43.13-.2.27-.5.44-.89Z"/>
      </g>
      <g>
        <path class="cls-12" d="m1751.5,769.44h.58v-.73c0-.76.09-1.36.28-1.8.19-.45.52-.77.98-.97.46-.2,1.08-.31,1.88-.31,1.42,0,2.11.34,2.11,1.04,0,.22-.07.41-.22.57-.14.16-.32.24-.52.24-.09,0-.26-.02-.49-.06-.22-.03-.42-.05-.58-.05-.44,0-.71.13-.84.39-.12.26-.18.62-.18,1.1v.58h.59c.92,0,1.38.27,1.38.83,0,.39-.12.64-.37.75-.24.11-.58.16-1.01.16h-.59v6.4c0,.48-.11.84-.35,1.09-.23.26-.52.38-.88.38s-.62-.12-.86-.38c-.23-.25-.34-.61-.34-1.09v-6.4h-.67c-.36,0-.64-.08-.83-.24-.2-.16-.29-.37-.29-.63,0-.58.4-.86,1.21-.86"/>
        <path class="cls-12" d="m1759.41,775.56v2.02c0,.49-.12.85-.35,1.1-.23.25-.52.37-.88.37s-.64-.12-.86-.38c-.22-.24-.34-.61-.34-1.09v-6.72c0-1.09.39-1.63,1.17-1.63.4,0,.69.13.87.38.18.25.27.63.3,1.12.29-.5.58-.87.89-1.12.31-.25.71-.38,1.22-.38s1,.13,1.48.38c.48.25.72.59.72,1.01,0,.29-.1.54-.3.73-.2.19-.42.29-.66.29-.09,0-.31-.06-.65-.17-.34-.1-.64-.16-.9-.16-.35,0-.64.1-.87.28-.23.19-.4.47-.52.83-.12.37-.21.81-.26,1.31-.05.51-.07,1.12-.07,1.85"/>
        <path class="cls-12" d="m1770.51,774.73h-4.73c0,.55.11,1.03.33,1.45.22.41.5.73.86.94.36.21.75.32,1.18.32.29,0,.55-.03.79-.1.24-.06.47-.17.69-.32.23-.14.43-.3.62-.47.19-.16.43-.39.73-.67.12-.11.3-.16.53-.16.25,0,.45.07.61.2.15.14.23.33.23.58,0,.22-.08.47-.25.76-.17.29-.43.57-.78.84-.35.27-.78.49-1.3.66-.52.18-1.12.27-1.8.27-1.55,0-2.76-.44-3.62-1.33-.86-.89-1.3-2.09-1.3-3.6,0-.71.11-1.38.32-1.99.21-.61.52-1.13.93-1.57.4-.44.9-.77,1.5-1,.59-.23,1.26-.35,1.98-.35.94,0,1.75.2,2.43.6.67.39,1.19.91,1.52,1.54.34.64.51,1.28.51,1.93,0,.61-.18,1-.52,1.18-.35.18-.84.27-1.47.27m-4.72-1.38h4.38c-.06-.82-.28-1.44-.67-1.85-.39-.41-.89-.61-1.52-.61s-1.1.21-1.48.62c-.39.42-.62,1.03-.7,1.84"/>
        <path class="cls-12" d="m1780.55,774.73h-4.72c0,.55.12,1.03.33,1.45.22.41.5.73.86.94.36.21.75.32,1.18.32.29,0,.55-.03.79-.1.24-.06.47-.17.7-.32.23-.14.43-.3.62-.47.19-.16.43-.39.73-.67.13-.11.3-.16.53-.16.25,0,.45.07.61.2.15.14.22.33.22.58,0,.22-.08.47-.25.76-.16.29-.42.57-.77.84-.34.27-.78.49-1.3.66-.52.18-1.12.27-1.8.27-1.55,0-2.76-.44-3.62-1.33-.86-.89-1.29-2.09-1.29-3.6,0-.71.11-1.38.32-1.99.21-.61.52-1.13.93-1.57.41-.44.9-.77,1.5-1,.59-.23,1.26-.35,1.98-.35.94,0,1.75.2,2.43.6.67.39,1.18.91,1.51,1.54.34.64.51,1.28.51,1.93,0,.61-.18,1-.52,1.18-.35.18-.84.27-1.47.27m-4.72-1.38h4.38c-.06-.82-.28-1.44-.67-1.85-.39-.41-.9-.61-1.53-.61s-1.09.21-1.48.62c-.39.42-.62,1.03-.7,1.84"/>
        <path class="cls-12" d="m1785.84,770.58v.29c.45-.56.93-.97,1.42-1.23.48-.26,1.04-.4,1.66-.4.74,0,1.43.19,2.05.57.62.39,1.12.95,1.48,1.68.36.74.55,1.61.55,2.62,0,.74-.1,1.43-.32,2.05-.21.62-.5,1.15-.86,1.57-.36.42-.8.74-1.29.97-.5.22-1.04.34-1.61.34-.69,0-1.27-.14-1.74-.42-.47-.27-.91-.68-1.34-1.22v3.62c0,1.06-.39,1.59-1.16,1.59-.46,0-.75-.14-.9-.41-.14-.28-.22-.67-.22-1.2v-10.43c0-.46.1-.8.3-1.03.2-.22.48-.34.82-.34s.62.12.84.35c.22.24.32.57.32,1.01m4.74,3.51c0-.64-.1-1.18-.29-1.64-.2-.46-.46-.81-.81-1.05-.34-.24-.73-.37-1.15-.37-.66,0-1.23.26-1.68.78-.46.53-.69,1.3-.69,2.32,0,.96.23,1.71.69,2.24.45.53,1.01.8,1.69.8.4,0,.77-.12,1.11-.35.35-.23.62-.58.82-1.05.21-.47.31-1.03.31-1.69"/>
        <path class="cls-12" d="m1795.43,768.1c-.34,0-.62-.11-.86-.31-.24-.21-.36-.5-.36-.87,0-.34.12-.62.37-.85.24-.22.53-.33.85-.33s.59.1.83.3c.24.21.36.5.36.88s-.12.66-.35.87c-.24.21-.52.31-.85.31m1.2,2.49v6.99c0,.48-.11.85-.34,1.09-.23.25-.52.38-.88.38s-.64-.12-.86-.38c-.22-.26-.33-.62-.33-1.09v-6.92c0-.47.11-.83.33-1.08.23-.25.51-.36.86-.36s.64.12.88.36c.23.24.34.58.34,1"/>
        <path class="cls-12" d="m1804.41,777.94l-2.12-3.51-1.31,1.24v1.92c0,.46-.12.82-.37,1.07-.24.26-.52.38-.84.38-.37,0-.67-.12-.88-.38-.21-.24-.32-.61-.32-1.09v-10.3c0-.53.11-.94.31-1.22.21-.28.51-.42.89-.42s.66.13.89.39c.22.25.33.63.33,1.12v5.86l2.72-2.85c.34-.35.59-.59.77-.72.18-.13.39-.19.64-.19.3,0,.55.1.76.29.2.19.3.43.3.72,0,.35-.33.83-.98,1.42l-1.28,1.18,2.48,3.9c.18.29.31.51.39.66.08.15.12.3.12.43,0,.38-.11.68-.32.91-.21.22-.49.33-.82.33-.3,0-.52-.08-.68-.24-.16-.16-.38-.45-.65-.86"/>
        <path class="cls-12" d="m1809.66,779.05c-.36,0-.68-.12-.94-.36-.26-.23-.4-.56-.4-.99,0-.36.13-.67.38-.93s.57-.39.94-.39.69.13.95.38c.26.26.39.57.39.93,0,.42-.13.75-.39.98-.27.24-.58.36-.93.36"/>
        <path class="cls-12" d="m1821.67,776.05c0,.3-.09.62-.27.97-.18.34-.45.67-.82.98-.37.31-.83.56-1.39.75-.56.19-1.19.28-1.89.28-1.5,0-2.66-.44-3.5-1.3-.83-.87-1.25-2.04-1.25-3.5,0-.99.19-1.87.58-2.63.38-.76.94-1.35,1.66-1.76.73-.42,1.6-.62,2.6-.62.63,0,1.2.09,1.73.27.52.18.96.42,1.33.71.36.29.64.6.83.92.19.33.29.64.29.92s-.1.53-.32.73c-.22.2-.48.3-.78.3-.2,0-.37-.05-.5-.16-.14-.1-.28-.27-.45-.51-.3-.45-.6-.78-.93-1-.32-.23-.73-.34-1.23-.34-.71,0-1.29.28-1.73.84-.44.55-.65,1.32-.65,2.28,0,.46.06.87.17,1.26.11.38.27.7.48.97.21.27.47.47.77.61.3.14.63.21.99.21.48,0,.9-.11,1.25-.34.35-.23.65-.57.92-1.03.15-.27.3-.48.48-.64.17-.15.38-.23.63-.23.3,0,.54.12.73.34.2.22.3.46.3.71"/>
        <path class="cls-12" d="m1832.09,774.14c0,.71-.11,1.38-.33,1.99-.23.61-.55,1.13-.98,1.56-.42.44-.93.77-1.52,1.01-.59.23-1.26.35-1.99.35s-1.39-.12-1.98-.36c-.58-.23-1.09-.57-1.51-1.01-.43-.44-.75-.96-.98-1.56-.21-.6-.33-1.26-.33-1.98s.11-1.4.33-2.01c.23-.61.55-1.13.96-1.56.42-.43.93-.76,1.52-.99.6-.23,1.26-.35,1.98-.35s1.39.12,1.99.35c.6.23,1.1.57,1.53,1.01.43.44.75.96.97,1.56.22.6.33,1.27.33,2m-2.42,0c0-.99-.22-1.75-.65-2.3-.43-.56-1.02-.83-1.75-.83-.48,0-.89.12-1.25.37-.36.24-.63.6-.83,1.08-.2.48-.29,1.04-.29,1.68s.1,1.18.29,1.65c.2.48.47.84.83,1.09.36.25.78.38,1.26.38.73,0,1.31-.27,1.75-.83.43-.55.65-1.31.65-2.28"/>
        <path class="cls-12" d="m1841.31,774.31v3.21c0,.51-.11.89-.35,1.14-.23.26-.53.38-.91.38s-.66-.13-.89-.38c-.23-.26-.35-.63-.35-1.14v-3.85c0-.61-.02-1.08-.06-1.42-.04-.33-.16-.61-.34-.82-.18-.22-.48-.33-.87-.33-.79,0-1.31.27-1.56.82-.25.54-.38,1.32-.38,2.34v3.26c0,.5-.12.88-.34,1.14-.23.26-.53.39-.9.39s-.67-.13-.9-.39c-.23-.26-.35-.64-.35-1.14v-6.91c0-.46.1-.8.31-1.04.21-.24.49-.35.83-.35s.61.11.83.33c.22.22.33.53.33.92v.23c.42-.5.87-.87,1.35-1.1.48-.24,1.01-.36,1.6-.36s1.13.12,1.56.36c.44.24.79.61,1.08,1.1.41-.49.85-.86,1.31-1.1.46-.24.98-.36,1.55-.36.66,0,1.23.13,1.71.39.48.26.83.63,1.07,1.11.2.44.31,1.13.31,2.07v4.72c0,.51-.11.89-.34,1.14-.23.26-.54.38-.91.38s-.67-.13-.9-.39c-.23-.26-.35-.64-.35-1.14v-4.06c0-.52-.02-.93-.07-1.24-.04-.32-.16-.58-.35-.79-.2-.21-.5-.32-.89-.32-.32,0-.62.1-.91.29s-.51.44-.67.76c-.17.41-.26,1.13-.26,2.16"/>
      </g>
      <g>
        <path class="cls-12" d="m1728.9,773.55s0,0,0-.02c0,0,0,.01,0,.02Z"/>
        <path class="cls-12" d="m1729.02,774.32h0c-.05-.22-.08-.44-.11-.65.03.22.06.44.11.65Z"/>
        <path class="cls-12" d="m1729.82,776.56s-.01-.02-.02-.03c0,0,0,.02.02.03Z"/>
        <path class="cls-12" d="m1729.75,776.41s-.04-.08-.06-.12c.02.05.04.08.06.12Z"/>
        <path class="cls-12" d="m1729.25,775.19c.12.37.26.73.43,1.08-.17-.35-.31-.72-.42-1.08h0Z"/>
        <path class="cls-12" d="m1738.25,764.3c.47,0,.81.04,1.2.1l.11-.71s-1.09-.34-2.52-.22l-.11-.39c.45-.09.78-.49.78-.96,0-.54-.44-.98-.98-.98s-.98.44-.98.98c0,.47.33.87.78.96l.12.43c-1.52.21-2.73.8-2.73.8l.21.66c.92-.31,1.72-.49,2.44-.57.71-.08,1.24-.11,1.68-.11Z"/>
        <path class="cls-12" d="m1729.8,767.89h0c.04-.05.07-.1.1-.14l-.29-.21-.45-.33s-.74.69-1.3,1.91c-.02-.04-.05-.08-.09-.11-.17-.18-.4-.28-.7-.27h-.01c-.19,0-.31-.06-.4-.14.08-.1.13-.24.13-.38,0-.34-.28-.62-.62-.62s-.62.28-.62.62.28.62.62.62c.05,0,.11-.01.16-.02.15.17.39.32.75.31.18,0,.32.04.41.14.1.11.14.28.15.4,0,0,0,0,0,0-.41,1.11-.29,2.48-.29,2.48l.98.04c.02-.5.09-1.38.35-2.08.49-1.35,1.11-2.19,1.13-2.23Z"/>
        <path class="cls-12" d="m1746.81,765.12c-.34,0-.62.28-.62.62,0,.05.01.11.02.16-.17.16-.32.4-.31.75,0,.18-.05.32-.14.41-.08.07-.18.11-.27.13-.73-1.03-1.64-1.65-1.64-1.65l-.7.76c.53.48,1.08,1.09,1.61,1.85.37.53.74,1.2,1.06,1.87l.95-.45s-.43-1.08-1.05-2.04c.11-.04.21-.1.31-.18.19-.17.28-.41.27-.71,0-.19.06-.33.14-.41.11.08.24.13.38.13.35,0,.62-.28.62-.62,0-.34-.28-.62-.62-.62Z"/>
        <path class="cls-12" d="m1744.34,773.69c-1.31.64-3.47,1.49-6.32,1.88-1.11.16-2.2.21-3.19.21-1.3,0-2.44-.1-3.32-.21-1-.13-1.79-.28-2.27-.39.11.36.25.73.42,1.08,0,0,0,.02.01.03.02.04.04.08.06.12.02.04.04.08.06.12,0,.01.01.02.02.03.28.53.62,1.02,1.01,1.44,1.34,1.47,2.71,1.7,2.72,1.7h.02s.02.01.02.01c.01,0,1.22.4,3.07.4s3.59-.37,5.28-1.09c1.26-.64,2.44-1.62,3.03-2.49.45-.67.78-1.39.98-2.14.1-.4.18-1.03.14-1.7-.37.25-.96.6-1.75.99Z"/>
        <path class="cls-12" d="m1730.23,768.2c-.04.05-.61.86-1.06,2.09-.34.93-.32,2.28-.32,2.29h0c0,.32.02.63.05.94,0,0,0,.01,0,.02,0,.04.01.08.01.12.03.22.06.43.11.65.65.17,4.54,1.08,8.89.47,2.73-.38,4.8-1.18,6.05-1.79,1.05-.51,1.72-.97,1.98-1.15-.26-.96-.97-2.46-1.62-3.4-1.87-2.67-3.88-3.35-4.92-3.52-.39-.07-.71-.1-1.16-.1-.42,0-.93.03-1.62.11-.69.07-1.46.25-2.36.55-1.25.42-2.39,1.08-3.28,1.91l-.03.03c-.14.12-.41.38-.73.79Zm11.43-.62c.89,0,1.62.73,1.62,1.62s-.73,1.62-1.62,1.62-1.62-.73-1.62-1.62.73-1.62,1.62-1.62Zm-7.68-.06c1.45,0,2.62,1.17,2.62,2.62s-1.17,2.62-2.62,2.62-2.62-1.17-2.62-2.62c0-1.45,1.18-2.62,2.62-2.62Z"/>
      </g>
    </g>
  </g>
  <path class="cls-17" d="m425.28,374.09H0V4.49h425.28v369.6ZM78.28,242.26c0,.37.01.62,0,.86-.06.92-.13,1.84-.18,2.77-.1,1.63-.19,3.26-.28,4.9-.18,3.34-.4,6.67-.54,10.01-.15,3.55-.21,7.11-.32,10.66-.19,5.97-.1,11.94.31,17.9.15,2.16.38,4.32.86,6.44.23,1,.54,1.99.89,2.95.29.82.83,1.48,1.6,1.93.34.2.66.43.98.64,6.29,4.06,12.95,7.4,19.86,10.27,10.17,4.21,20.68,7.33,31.39,9.8,4.88,1.12,9.79,2.1,14.73,2.94,2.94.5,5.89.92,8.85,1.36,1.86.28,3.73.53,5.6.76,2.12.26,4.24.49,6.35.71,1.73.18,3.46.34,5.2.49,2.27.2,4.53.39,6.8.56,1.56.12,3.12.21,4.68.28,3.83.19,7.67.44,11.5.52,5.33.11,10.66.12,15.99.12,2.84,0,5.69-.04,8.53-.14,3.87-.14,7.74-.34,11.61-.54,2.59-.14,5.18-.29,7.77-.5,3.47-.29,6.94-.61,10.4-.98,3.57-.38,7.13-.82,10.69-1.27,4.19-.52,8.37-1.19,12.53-1.91,7.18-1.23,14.3-2.72,21.36-4.53,7.06-1.81,14.02-3.94,20.79-6.63,4.6-1.82,9.08-3.89,13.33-6.43,2.66-1.58,5.19-3.35,7.53-5.4.66-.58,1.17-1.25,1.43-2.08.3-.95.59-1.9.79-2.87.65-3.18.87-6.41,1.03-9.64.25-5.15.31-10.3.2-15.46-.12-5.54-.24-11.09-.54-16.62-.14-2.63-.26-5.25-.4-7.88-.08-1.53-.17-3.05-.25-4.58-.02-.35-.11-.71.12-1.07.2.02.41.02.61.06,4.88.97,9.73,2.03,14.57,3.19,8.22,1.97,16.36,4.25,24.43,6.78.3.1.61.2.92.25.37.06.7-.07.95-.37.54-.66.34-1.62-.42-1.98-.22-.11-.47-.17-.7-.25-12.95-4.09-26.09-7.45-39.41-10.07-.41-.08-.84-.11-1.25-.35-.03-.37-.06-.72-.08-1.07-.09-1.42-.16-2.84-.27-4.26-.24-3.08-.5-6.16-.76-9.24-.08-.99-.17-1.98-.25-2.97-.02-.2.02-.4.04-.64,1.3-.14,2.53-.19,3.77-.2,5.97-.07,11.94-.14,17.91.14,2.17.1,4.33.19,6.5.3,1.21.06,2.41.15,3.62.25,2.8.24,5.59.5,8.39.76.5.05.99.13,1.48.15.76.03,1.26-.59,1.12-1.34-.12-.61-.5-1.03-1.13-1.11-.81-.11-1.62-.19-2.44-.26-3.97-.33-7.93-.71-11.9-.96-3.51-.22-7.03-.35-10.55-.42-3.52-.07-7.04-.04-10.56-.02-1.92.01-3.84.1-5.76.15-.28,0-.58.08-.84-.23-.16-1.39-.32-2.83-.48-4.28-.31-2.68-.59-5.37-.94-8.05-.44-3.45-.91-6.9-1.41-10.35-.64-4.46-1.29-8.93-2-13.38-.96-6-1.96-11.99-2.98-17.98-.94-5.57-1.91-11.13-2.91-16.69-1.11-6.19-2.25-12.37-3.4-18.55-1.64-8.8-3.44-17.56-5.33-26.31-2.77-12.78-5.83-25.48-9.24-38.1-.67-2.47-1.37-4.93-2.08-7.38-.33-1.13-.78-2.21-1.43-3.2-1.51-2.32-3.66-3.38-6.42-3.2-1.74.11-3.34.67-4.88,1.42-2.03.99-3.84,2.3-5.54,3.76-10.37,8.87-18.91,19.24-25.63,31.11-1.79,3.16-3.41,6.39-4.9,9.7-.15.34-.22.75-.61.99-.25-.14-.5-.26-.75-.41-2.11-1.25-4.32-2.32-6.59-3.25-5.12-2.1-10.45-3.44-15.88-4.4-5.5-.97-11.06-1.52-16.64-1.68-6.36-.18-12.72-.23-19.08.1-2.66.14-5.32.35-7.97.64-3.96.43-7.88,1.07-11.76,1.96-6.23,1.44-12.22,3.49-17.74,6.8-.17.1-.37.14-.54.21-.09-.1-.15-.15-.18-.21-.13-.25-.25-.51-.36-.77-5.96-13.32-14.16-25.1-24.55-35.34-2.05-2.02-4.18-3.96-6.38-5.81-1.78-1.49-3.68-2.78-5.82-3.73-1.38-.61-2.8-1.04-4.31-1.11-2.54-.12-4.59.79-6.06,2.88-.44.63-.82,1.34-1.11,2.06-.41,1.02-.75,2.07-1.05,3.13-2.09,7.42-4.04,14.87-5.87,22.36-2.18,8.9-4.23,17.83-6.09,26.8-1.13,5.42-2.24,10.85-3.3,16.29-1,5.09-1.93,10.19-2.87,15.29-.7,3.77-1.36,7.55-2.03,11.33-.61,3.5-1.21,7-1.81,10.5-.54,3.19-1.08,6.37-1.61,9.56-.54,3.22-1.07,6.45-1.59,9.67-.47,2.95-.94,5.89-1.39,8.84-.41,2.7-.79,5.41-1.17,8.12-.33,2.39-.65,4.79-.96,7.18-.26,2.01-.5,4.02-.73,6.03-.25,2.15-.47,4.31-.71,6.46-.03.31-.12.62-.2.99-.39,0-.74.02-1.09.02-3.41.04-6.82.04-10.23.14-3.23.09-6.46.23-9.69.44-3.86.26-7.72.61-11.58.93-.5.04-.99.1-1.48.19-.75.14-1.2.85-1.06,1.59.12.63.58.9,1.38.83,2.12-.2,4.24-.43,6.37-.6,2.73-.22,5.46-.42,8.19-.59,2.06-.13,4.12-.18,6.18-.28,4.01-.2,8.03-.16,12.05-.16.24,0,.47.07.72.11.02.19.05.33.04.47-.07.85-.16,1.7-.23,2.55-.25,2.97-.53,5.95-.75,8.92-.19,2.48-.31,4.97-.47,7.45-.02.24-.1.47-.14.69-.2.06-.33.1-.47.13-5.31,1.17-10.59,2.44-15.84,3.83-5.42,1.44-10.81,3.01-16.16,4.7-.3.1-.62.19-.89.34-.52.29-.71.9-.51,1.48.22.62.68.9,1.33.76.42-.09.82-.23,1.23-.35,10-3.15,20.12-5.85,30.35-8.11.24-.05.48-.08.88-.14Z"/>
  <path class="cls-10" d="m611.58,194.85c-.39.06-.64.08-.88.14-10.24,2.26-20.35,4.96-30.35,8.11-.41.13-.81.27-1.23.35-.66.13-1.11-.15-1.33-.76-.2-.58-.01-1.19.51-1.48.28-.15.59-.24.89-.34,5.35-1.69,10.74-3.26,16.16-4.7,5.25-1.4,10.54-2.67,15.84-3.83.14-.03.27-.08.47-.13.05-.22.13-.45.14-.69.16-2.48.28-4.97.47-7.45.22-2.98.5-5.95.75-8.92.07-.85.16-1.7.23-2.55.01-.14-.02-.28-.04-.47-.25-.04-.49-.1-.72-.11-4.02,0-8.03-.05-12.05.16-2.06.1-4.12.15-6.18.28-2.73.17-5.46.37-8.19.59-2.12.17-4.25.4-6.37.6-.8.08-1.26-.19-1.38-.83-.14-.74.31-1.45,1.06-1.59.49-.09.98-.15,1.48-.19,3.86-.32,7.72-.67,11.58-.93,3.23-.21,6.46-.35,9.69-.44,3.41-.1,6.82-.1,10.23-.14.35,0,.7-.01,1.09-.02.08-.37.16-.68.2-.99.24-2.15.46-4.31.71-6.46.23-2.01.48-4.02.73-6.03.31-2.4.63-4.79.96-7.18.38-2.71.76-5.42,1.17-8.12.45-2.95.91-5.9,1.39-8.84.52-3.23,1.05-6.45,1.59-9.67.53-3.19,1.07-6.37,1.61-9.56.6-3.5,1.19-7,1.81-10.5.66-3.78,1.33-7.56,2.03-11.33.94-5.1,1.88-10.2,2.87-15.29,1.06-5.44,2.18-10.86,3.3-16.29,1.87-8.97,3.91-17.9,6.09-26.8,1.84-7.48,3.78-14.94,5.87-22.36.3-1.06.64-2.11,1.05-3.13.29-.72.66-1.42,1.11-2.06,1.47-2.09,3.52-3.01,6.06-2.88,1.51.07,2.93.51,4.31,1.11,2.13.94,4.04,2.23,5.82,3.73,2.21,1.85,4.33,3.79,6.38,5.81,10.39,10.24,18.59,22.02,24.55,35.34.12.26.24.52.36.77.03.06.09.11.18.21.17-.06.37-.1.54-.21,5.51-3.3,11.51-5.36,17.74-6.8,3.88-.9,7.8-1.53,11.76-1.96,2.65-.29,5.3-.51,7.97-.64,6.36-.33,12.72-.27,19.08-.1,5.58.16,11.13.71,16.64,1.68,5.43.96,10.76,2.31,15.88,4.4,2.27.93,4.48,2,6.59,3.25.24.14.49.27.75.41.39-.24.46-.65.61-.99,1.49-3.31,3.11-6.55,4.9-9.7,6.73-11.87,15.26-22.25,25.63-31.11,1.71-1.46,3.52-2.77,5.54-3.76,1.54-.75,3.14-1.31,4.88-1.42,2.76-.17,4.91.88,6.42,3.2.64.99,1.1,2.07,1.43,3.2.71,2.46,1.42,4.91,2.08,7.38,3.41,12.62,6.47,25.32,9.24,38.1,1.89,8.75,3.69,17.51,5.33,26.31,1.15,6.18,2.29,12.36,3.4,18.55,1,5.56,1.96,11.12,2.91,16.69,1.02,5.99,2.02,11.98,2.98,17.98.71,4.45,1.36,8.92,2,13.38.5,3.45.96,6.9,1.41,10.35.34,2.68.63,5.36.94,8.05.17,1.44.33,2.89.48,4.28.26.31.56.24.84.23,1.92-.05,3.84-.14,5.76-.15,3.52-.02,7.04-.05,10.56.02,3.52.07,7.04.2,10.55.42,3.97.25,7.93.63,11.9.96.81.07,1.63.15,2.44.26.63.09,1.01.5,1.13,1.11.14.75-.36,1.37-1.12,1.34-.5-.02-.99-.11-1.48-.15-2.8-.26-5.59-.52-8.39-.76-1.2-.1-2.41-.19-3.62-.25-2.17-.11-4.33-.19-6.5-.3-5.97-.28-11.94-.21-17.91-.14-1.24.02-2.48.06-3.77.2-.02.24-.06.44-.04.64.08.99.17,1.98.25,2.97.26,3.08.52,6.16.76,9.24.11,1.42.18,2.84.27,4.26.02.35.05.7.08,1.07.41.24.84.27,1.25.35,13.33,2.62,26.46,5.98,39.41,10.07.24.07.48.14.7.25.76.36.96,1.33.42,1.98-.25.3-.58.43-.95.37-.31-.05-.62-.15-.92-.25-8.07-2.53-16.21-4.81-24.43-6.78-4.83-1.16-9.69-2.23-14.57-3.19-.2-.04-.41-.04-.61-.06-.23.36-.14.72-.12,1.07.07,1.53.17,3.05.25,4.58.13,2.63.25,5.25.4,7.88.3,5.54.42,11.08.54,16.62.11,5.15.05,10.31-.2,15.46-.16,3.23-.38,6.46-1.03,9.64-.2.97-.5,1.92-.79,2.87-.26.83-.77,1.5-1.43,2.08-2.33,2.05-4.87,3.81-7.53,5.4-4.25,2.53-8.73,4.6-13.33,6.43-6.78,2.69-13.74,4.82-20.79,6.63-7.06,1.81-14.18,3.3-21.36,4.53-4.17.71-8.34,1.38-12.53,1.91-3.56.44-7.12.89-10.69,1.27-3.46.37-6.93.69-10.4.98-2.58.21-5.18.37-7.77.5-3.87.2-7.74.4-11.61.54-2.84.1-5.69.14-8.53.14-5.33,0-10.66,0-15.99-.12-3.84-.08-7.67-.33-11.5-.52-1.56-.08-3.12-.17-4.68-.28-2.27-.17-4.53-.36-6.8-.56-1.73-.15-3.47-.31-5.2-.49-2.12-.22-4.24-.45-6.35-.71-1.87-.23-3.73-.49-5.6-.76-2.95-.44-5.9-.86-8.85-1.36-4.94-.84-9.85-1.81-14.73-2.94-10.71-2.47-21.22-5.59-31.39-9.8-6.91-2.86-13.57-6.21-19.86-10.27-.33-.21-.65-.44-.98-.64-.77-.45-1.31-1.11-1.6-1.93-.35-.97-.66-1.95-.89-2.95-.48-2.12-.71-4.28-.86-6.44-.41-5.96-.5-11.93-.31-17.9.12-3.55.18-7.11.32-10.66.14-3.34.35-6.67.54-10.01.09-1.63.18-3.26.28-4.9.06-.92.13-1.84.18-2.77.01-.24,0-.49,0-.86Z"/>
  <path class="cls-17" d="m313.43,141.54c-.61.14-1.01-.07-1.38-.25-.86-.43-1.72-.86-2.54-1.35-3.16-1.87-6.1-4.04-9.06-6.21-6.39-4.68-12.28-9.9-17.74-15.62-1.84-1.93-3.57-3.96-5.14-6.12-1.21-1.67-2.3-3.42-3.15-5.31-.21-.45-.36-.93-.57-1.38-.69-1.44-.65-2.89-.09-4.34.49-1.26.98-2.52,1.56-3.74,1.53-3.21,3.35-6.27,5.25-9.27,3.63-5.74,7.5-11.32,11.76-16.61,1.27-1.58,2.57-3.13,4.11-4.46.3-.26.6-.5.91-.75.17-.13.34-.26.52-.37,1.72-1.14,2.7-.91,3.73.9.63,1.12,1.12,2.3,1.44,3.55.73,2.82,1.48,5.64,2.16,8.47,1.89,7.91,3.56,15.88,5.06,23.88,1.08,5.76,2.04,11.55,2.78,17.36.42,3.28.77,6.56.98,9.86.14,2.24.22,4.48.13,6.71-.05,1.31-.25,2.61-.4,3.92-.05.38-.19.75-.29,1.13Z"/>
  <path class="cls-17" d="m103.3,131.85c.12-1.51.26-3.99.52-6.47.32-3.04.68-6.07,1.12-9.1.54-3.73,1.15-7.45,1.8-11.15,1.34-7.56,2.88-15.08,4.61-22.55.94-4.05,1.98-8.08,2.98-12.11.31-1.25.77-2.44,1.39-3.57.24-.43.51-.86.84-1.23.55-.64,1.27-.79,2.03-.44.51.24,1.01.53,1.46.87,1.12.83,2.11,1.8,3.03,2.84,2.29,2.58,4.38,5.33,6.41,8.12,3.87,5.32,7.52,10.79,10.75,16.53,1.08,1.92,2.11,3.87,2.91,5.93.32.82.57,1.68.82,2.53.26.85.18,1.68-.11,2.51-.49,1.41-1.09,2.78-1.83,4.08-1.48,2.61-3.3,4.97-5.26,7.23-2.43,2.79-5.09,5.36-7.77,7.9-5.91,5.59-12.38,10.46-19.13,14.96-1.3.87-2.69,1.6-4.05,2.36-.4.22-.85.36-1.29.5-.34.1-.56-.03-.63-.38-.17-.8-.33-1.6-.43-2.41-.24-1.98-.23-3.97-.17-6.94Z"/>
  <path class="cls-17" d="m165.26,143.4c-1.79.56-3.49,1.04-5.16,1.62-1.68.59-3.27,1.38-4.82,2.25-1.55.87-3.03,1.86-4.44,2.94-1.41,1.09-2.74,2.26-3.97,3.55-1.23,1.28-2.38,2.62-3.42,4.14.26.15.42.3.6.36,3.84,1.22,5.98,3.93,6.79,7.76.33,1.54.23,3.12-.2,4.65-1.12,3.93-3.41,6.99-6.92,9.1-1.46.87-3.05,1.36-4.77,1.24-.45-.03-.9-.1-1.42-.17-.03.25-.1.46-.08.65.31,2.7,1.01,5.3,1.99,7.82,1.56,4.02,3.79,7.63,6.75,10.77,3.56,3.78,7.87,6.38,12.75,8.08,2.39.83,4.83,1.43,7.34,1.77.46.06.91.15,1.37.23.02.25-.19.24-.33.28-2.32.69-4.68,1.18-7.11,1.32-.74.04-1.49.13-2.23.14-6.43.08-12.47-1.42-18.11-4.48-6.84-3.7-12.16-8.95-15.79-15.85-1.82-3.46-2.99-7.14-3.48-11.02-.78-6.18.19-12.12,2.76-17.78,3.17-6.97,8.09-12.39,14.69-16.27,3.72-2.18,7.72-3.59,11.98-4.26,2.26-.35,4.52-.48,6.8-.37,2.63.13,5.23.52,7.77,1.26.2.06.39.14.66.24Z"/>
  <path class="cls-17" d="m253.15,180.9c-.02.25-.08.46-.05.65.13.88.26,1.76.44,2.62,1.2,5.48,3.56,10.4,7.19,14.69,2.75,3.25,6.06,5.78,9.87,7.66,3.57,1.75,7.34,2.85,11.27,3.43.48.07.95.16,1.59.28-.27.13-.38.21-.51.24-2.22.67-4.48,1.13-6.79,1.3-.85.06-1.7.15-2.55.16-6.01.08-11.71-1.25-17.07-3.94-6.13-3.08-11.14-7.45-14.94-13.18-2.62-3.96-4.39-8.28-5.16-12.98-.39-2.39-.51-4.79-.38-7.22.63-11.42,7.57-22.23,17.56-28.04,3.98-2.32,8.25-3.81,12.82-4.41,2.54-.34,5.1-.39,7.66-.13,2.06.21,4.08.56,6.07,1.12.2.06.39.13.6.2-.08.3-.32.28-.5.32-8.39,1.98-15.13,6.49-20.44,13.23-.26.33-.57.63-.67,1.13.18.1.35.22.54.29,3.55,1.19,5.61,3.72,6.54,7.26.49,1.88.32,3.74-.25,5.57-1.09,3.48-3.17,6.25-6.2,8.28-1.01.68-2.11,1.16-3.31,1.42-.92.21-1.83.23-2.75.09-.17-.03-.34-.02-.57-.04Z"/>
</svg>