<?xml version="1.0" encoding="UTF-8"?>
<svg id="Layer_2" data-name="Layer 2" xmlns="http://www.w3.org/2000/svg" viewBox="0 0 146.48 281.65">
  <defs>
    <style>
      .cls-1 {
        fill: #8c52a1;
      }

      .cls-1, .cls-2, .cls-3 {
        stroke-width: 0px;
      }

      .cls-2 {
        fill: #a7a0b5;
      }

      .cls-3 {
        fill: #ae99c9;
      }
    </style>
  </defs>
  <g id="Layer_1-2" data-name="Layer 1">
    <g>
      <polygon class="cls-3" points="145.87 141.81 145.51 158.59 141.85 175.01 140.02 191.69 133.04 207.11 128.22 222.96 121.32 237.97 116.61 254.62 104.21 266.29 91.76 278.24 74.42 281.65 58.9 274.21 46.03 263.67 36.12 250.12 29.25 234.78 25.79 218.33 19.92 202.59 18.62 185.85 12.61 169.56 14.89 152.59 17.02 135.9 18.14 119.31 16.29 102.2 18.38 85.4 26.92 70.26 29.31 53.39 35.33 37.53 44.2 22.99 57.56 12.3 69.37 0 86.19 .82 101.36 4.38 112.94 15.56 123.1 28.43 130.24 43.39 138.99 58.14 143.71 74.46 146.48 91.2 145.38 108.27 144.31 125.05 145.87 141.81"/>
      <polygon class="cls-1" points="134.44 132.35 134.44 164.38 127.52 204.93 109.17 233.1 95.6 262.47 66.83 273.69 35.51 264.62 19.78 234.9 5.02 204.76 0 171.84 0 138.49 1.69 105.52 9.75 73.53 23.32 43.87 37.24 14.12 67.1 3.68 94.44 16.74 112.34 43.54 121.2 74.79 134.44 99.28 134.44 132.35"/>
      <path class="cls-2" d="m106.29,99.35c1.76-11.12,2.19-26.25-3.58-42.19-3.28-9.06-6.78-18.31-15.73-22.17-8.31-3.58-17.47-.86-20.35,0-6.26,1.86-10.71,5.02-13.27,7.16,0,0,12.16-5.01,22.17,1.43,10.01,6.44,17.16,35.44,17.16,35.44l5.01,20.34,5.72,13.36,2.86-13.36Z"/>
      <path class="cls-2" d="m64.1,76.86s-8.58-13.28-16.45-13.99c-7.87-.71-20.74,15.74-21.45,33.98s5.72,109.4,5.72,109.4c0,0,7.15,34.01,17.88,39.36,10.73,5.35,24.31,7.08,34.33-7.37,10.01-14.45,3.58-17.29,3.58-17.29,0,0-21.62,37.52-29.76,5.88-8.14-31.64-23.16-109.58-18.15-123.89s15.02-17.84,20.74-13.21c5.72,4.62,9.3,4.52,9.3,4.52l-5.72-17.38Z"/>
      <path class="cls-2" d="m64.1,138.81s5.48-19.11,11.44-19.07c10.78.07,30.04,16.51,29.32,39.89s-12.42,51.5-24.45,49.24c-12.02-2.26-13.45-25.12-13.45-25.12,0,0,14.15,18.22,18.87,10.17,4.73-8.05,11.84-35.3,4.96-49.05-9.06-18.12-26.7-6.07-26.7-6.07Z"/>
    </g>
  </g>
</svg>