<svg width="62" height="67" viewBox="0 0 62 67" fill="none" xmlns="http://www.w3.org/2000/svg">
<g clip-path="url(#clip0_744_28)">
<path d="M46 0C54.8366 0 62 7.16344 62 16V51.0273C61.9998 59.8637 54.8364 67.0273 46 67.0273H16C7.16355 67.0273 0.000172016 59.8638 0 51.0273V16C4.22975e-06 7.16345 7.16345 0 16 0H46ZM32.2061 15.0811C31.6198 15.0811 30.9456 15.2275 30.1836 15.5205L23.4092 18.248C21.7671 18.9518 20.9464 20.0661 20.9463 21.5908C20.9463 22.7051 21.2982 23.6438 22.002 24.4062C22.7057 25.1099 23.6144 25.4619 24.7285 25.4619H25.4326C25.6672 25.4033 25.9021 25.3155 26.1367 25.1982L27.7197 24.3184C28.4234 23.9079 28.7753 24.1129 28.7754 24.9336V48.2471C28.7754 49.2439 29.1568 50.1234 29.9189 50.8857C30.74 51.6482 31.6787 52.0293 32.7344 52.0293C33.9073 52.0293 34.846 51.7076 35.5498 51.0625C36.3122 50.3587 36.6934 49.4785 36.6934 48.4229L36.7812 19.5674C36.7812 18.2187 36.3415 17.1335 35.4619 16.3125C34.6408 15.4914 33.555 15.0811 32.2061 15.0811Z" fill="white"/>
</g>
<defs>
<clipPath id="clip0_744_28">
<rect width="62" height="67" fill="white"/>
</clipPath>
</defs>
</svg>
