<svg width="62" height="67" viewBox="0 0 62 67" fill="none" xmlns="http://www.w3.org/2000/svg">
<g clip-path="url(#clip0_744_32)">
<path d="M46 0C54.8366 0 62 7.16344 62 16V51.0273C61.9998 59.8638 54.8364 67.0273 46 67.0273H16C7.16355 67.0273 0.000168877 59.8638 0 51.0273V16C5.21407e-06 7.16345 7.16345 0 16 0H46ZM30.6885 13.5928C27.1109 13.5928 24.1194 14.589 21.7148 16.583C19.3689 18.5184 18.1378 21.0411 18.0205 24.1494C17.962 25.1463 18.2846 25.9965 18.9883 26.7002C19.692 27.4039 20.5714 27.7558 21.627 27.7559C22.624 27.7559 23.4457 27.4917 24.0908 26.9639C24.7944 26.3774 25.2342 25.6442 25.4102 24.7646C25.7034 23.4745 26.261 22.4479 27.082 21.6855C27.9031 20.9233 28.9589 20.542 30.249 20.542C31.5977 20.5421 32.6537 20.9524 33.416 21.7734C34.237 22.5944 34.6474 23.6796 34.6475 25.0283C34.6475 26.6118 34.1484 28.1958 33.1514 29.7793C32.1543 31.3041 30.3656 33.2693 27.7852 35.6738L20.8359 42.0957C19.6631 43.2099 19.0763 44.4413 19.0762 45.79C19.0762 46.9043 19.4573 47.843 20.2197 48.6055C21.0408 49.3679 22.0087 49.749 23.123 49.749H40.4531C41.5088 49.749 42.3597 49.4264 43.0049 48.7812C43.6498 48.1362 43.9726 47.2859 43.9727 46.2305C43.9727 45.1161 43.6208 44.236 42.917 43.5908C42.2132 42.887 41.2745 42.5644 40.1016 42.623L32.0957 42.7998C30.7471 42.7997 30.5422 42.3299 31.4805 41.3916L36.4072 36.4648C38.4597 34.4123 39.9845 32.4771 40.9814 30.6592C42.0371 28.7824 42.5645 26.8174 42.5645 24.7646C42.5644 21.4805 41.4795 18.8124 39.3096 16.7598C37.1982 14.6484 34.3247 13.5928 30.6885 13.5928Z" fill="white"/>
</g>
<defs>
<clipPath id="clip0_744_32">
<rect width="62" height="67" fill="white"/>
</clipPath>
</defs>
</svg>
