<svg width="453" height="453" viewBox="0 0 453 453" fill="none" xmlns="http://www.w3.org/2000/svg">
<g clip-path="url(#clip0_691_367)">
<path d="M87.7575 236.895C90.3872 235.475 93.6083 235.752 95.9572 237.6L95.9742 237.613C95.9845 237.62 95.9982 237.631 96.0142 237.643C96.0698 237.686 96.1627 237.757 96.2915 237.854C96.5494 238.048 96.9513 238.345 97.4859 238.727C98.5558 239.492 100.154 240.594 102.197 241.884C106.295 244.473 112.118 247.781 119.003 250.667C132.977 256.522 150.19 260.174 166.244 254.152C180.614 248.761 186.08 241.631 190.655 234.518C191.184 233.696 191.716 232.839 192.264 231.957C196.557 225.042 201.779 216.631 213.494 212.044C221.474 208.919 231.418 208.66 240.105 212.328C249.134 216.14 256.502 224.101 258.649 236.404C262.407 257.947 257.055 274.398 244.063 286.643C231.705 298.29 216.437 303.287 204.234 306.217C191.775 309.209 172.762 311.874 151.518 307.72C140.204 305.508 124.368 298.172 111.012 287.591C97.7517 277.085 85.4113 262.151 83.8491 244.142L83.831 243.863C83.6886 240.987 85.209 238.271 87.7575 236.895Z" fill="white"/>
<path d="M105.716 -20.0219C104.578 -22.3525 102.316 -23.9298 99.7365 -24.193L-38.6364 -38.3125C-42.6495 -38.722 -46.268 -35.8836 -46.826 -31.8884L-81.4279 215.963C-81.7399 218.198 -81.0291 220.455 -79.4924 222.107C-77.9555 223.76 -75.7489 224.632 -73.4971 224.483L-73.4826 224.482L-73.4652 224.481C-73.4559 224.481 -73.4449 224.48 -73.4324 224.479L-73.2398 224.466C-73.0725 224.454 -72.8265 224.436 -72.5054 224.413C-71.8631 224.366 -70.919 224.295 -69.6958 224.198C-67.2488 224.002 -63.6842 223.7 -59.1854 223.27C-50.1895 222.411 -37.4469 221.041 -22.4245 218.994C7.5733 214.907 46.8672 208.093 83.6325 197.19C120.741 186.186 154.664 168.286 179.212 153.238C191.512 145.698 201.52 138.837 208.466 133.849C211.941 131.354 214.653 129.325 216.507 127.912C217.434 127.206 218.147 126.653 218.634 126.272C218.788 126.151 218.92 126.047 219.029 125.961L219.192 125.832L219.342 125.714L219.368 125.693L219.384 125.68L219.403 125.664C221.356 124.098 222.399 121.661 222.183 119.167C221.967 116.673 220.515 114.447 218.322 113.24L218.297 113.226L218.264 113.208C218.245 113.198 218.222 113.185 218.195 113.17C218.104 113.12 217.968 113.045 217.789 112.945C217.43 112.747 216.901 112.453 216.22 112.074C214.86 111.315 212.899 110.215 210.501 108.856C205.704 106.137 199.176 102.387 192.24 98.2564C178.046 89.8038 163.146 80.3373 157.154 74.7873C154.705 72.5186 150.818 67.0623 145.937 58.8819C141.217 50.9716 136.002 41.2733 130.846 31.2346C123.186 16.3206 115.803 0.943619 110.469 -10.1656L109.449 -12.2894C108.018 -15.2691 106.76 -17.8823 105.716 -20.0219Z" fill="white"/>
<path d="M362.543 149.432C366.093 147.298 370.701 148.447 372.835 151.997C374.969 155.547 373.821 160.155 370.271 162.289L295.822 207.041C292.272 209.175 287.663 208.028 285.529 204.478C283.395 200.928 284.544 196.319 288.094 194.185L362.543 149.432Z" fill="white"/>
<path d="M306.4 79.5842C308.287 75.8968 312.805 74.4369 316.492 76.3234C320.18 78.2101 321.64 82.7284 319.753 86.4158L274.64 174.587C272.753 178.274 268.235 179.734 264.548 177.847C260.86 175.961 259.4 171.442 261.286 167.754L306.4 79.5842Z" fill="white"/>
<path d="M400.007 244.945C404.149 244.921 407.487 241.544 407.463 237.402C407.438 233.26 404.061 229.922 399.919 229.946L300.879 230.53C296.738 230.554 293.4 233.931 293.424 238.073C293.448 242.215 296.826 245.554 300.968 245.53L400.007 244.945Z" fill="white"/>
<path d="M221.058 296C221.058 257.372 219.204 238.504 208.057 210.56C196.653 181.972 182.346 162.315 173.154 154.874L181.962 143.993C193.77 153.551 209.214 175.677 221.06 205.373C233.163 235.712 235.058 256.628 235.058 296C235.058 310.975 232.729 326.923 225.126 340.707C217.39 354.729 204.481 365.977 184.494 371.727C174.845 374.503 167.335 375.463 161.243 375.486C155.116 375.508 150.677 374.575 147.474 373.89C143.91 373.128 143.35 373.138 142.945 373.241C142.837 373.268 141.728 373.533 139 376.904C137.736 378.464 137.303 379.032 136.589 380.344C135.135 383.019 134.878 385.315 135.171 388.154C135.33 389.706 135.651 391.369 136.084 393.434C136.498 395.411 137.021 397.785 137.429 400.312C138.107 404.501 141.027 415.708 143.934 426.357C145.358 431.573 146.737 436.504 147.759 440.131C148.27 441.945 148.692 443.431 148.986 444.463C149.133 444.979 149.248 445.382 149.326 445.655C149.365 445.791 149.395 445.896 149.415 445.965C149.425 446 149.432 446.027 149.437 446.044C149.44 446.053 149.442 446.06 149.443 446.064C149.444 446.066 149.444 446.068 149.444 446.069L149.445 446.07C150.511 449.786 148.362 453.663 144.646 454.729C140.93 455.795 137.054 453.646 135.988 449.93L142.716 448C136.023 449.921 135.987 449.93 135.987 449.93V449.928C135.987 449.927 135.986 449.925 135.985 449.922L135.956 449.82C135.935 449.748 135.904 449.642 135.865 449.503C135.786 449.226 135.669 448.818 135.521 448.297C135.224 447.255 134.8 445.756 134.285 443.93C133.255 440.279 131.866 435.309 130.428 430.044C127.613 419.732 124.435 407.653 123.609 402.546C123.266 400.426 122.834 398.47 122.38 396.305C121.945 394.228 121.486 391.935 121.244 389.589C120.733 384.633 121.188 379.361 124.291 373.656C125.62 371.212 126.691 369.859 128.118 368.096C131.477 363.946 134.975 360.822 139.495 359.672C143.716 358.599 147.802 359.644 150.402 360.2C153.365 360.833 156.612 361.503 161.191 361.486C165.805 361.469 172.023 360.747 180.624 358.273C197.136 353.523 206.977 344.621 212.867 333.944C218.888 323.027 221.058 309.725 221.058 296Z" fill="white"/>
</g>
<defs>
<clipPath id="clip0_691_367">
<rect width="453" height="453" fill="white"/>
</clipPath>
</defs>
</svg>
