<svg width="453" height="439" viewBox="0 0 453 439" fill="none" xmlns="http://www.w3.org/2000/svg">
<path d="M324.985 14.0701C329.55 9.91601 336.432 9.95882 340.798 14.322C372.109 45.6124 438.867 137.791 437.037 262.171C437.036 353.849 343.239 428.17 227.537 428.171C227.371 428.171 227.203 428.168 227.037 428.168C226.871 428.168 226.703 428.171 226.538 428.171C110.835 428.17 17.0383 353.849 17.0376 262.171C15.2077 137.79 81.9653 45.6117 113.276 14.322C117.642 9.95925 124.524 9.91585 129.089 14.0701C167.498 49.0205 189.412 98.4717 189.536 98.7507C201.546 97.0549 213.912 96.1707 226.538 96.1707C226.703 96.1707 226.871 96.1713 227.037 96.1716C227.203 96.1713 227.371 96.1707 227.537 96.1707C240.162 96.1707 252.528 97.0548 264.539 98.7507C264.672 98.449 286.585 49.0125 324.985 14.0701Z" fill="white"/>
</svg>
