<svg width="240" height="240" viewBox="0 0 240 240" fill="none" xmlns="http://www.w3.org/2000/svg">
<g clip-path="url(#clip0_721_135)">
<path d="M90.3584 6.77213C79.0797 -2.58982 62.0122 -2.48875 50.9821 8.60021C33.7004 25.9915 -0.938522 74.2959 0.0194672 139.94C0.246935 199.964 59.0791 239.998 119.766 240H120.219C180.905 240 239.754 199.975 239.981 139.948C240.879 78.4059 210.489 32.1097 192.448 12.2329L189.018 8.60802L187.924 7.56117C176.477 -2.85864 159.407 -2.22179 148.556 7.71742C137.481 17.8658 129.018 29.8996 123.383 39.2478L123.221 39.2443C122.223 39.2226 121.222 39.2009 120.219 39.2009H119.766C118.76 39.2009 117.757 39.2227 116.756 39.2444L116.601 39.2478C110.969 29.8989 102.503 17.8499 91.4287 7.70179L90.3584 6.77213Z" fill="white"/>
</g>
<defs>
<clipPath id="clip0_721_135">
<rect width="240" height="240" fill="white"/>
</clipPath>
</defs>
</svg>
