<svg width="240" height="240" viewBox="0 0 240 240" fill="none" xmlns="http://www.w3.org/2000/svg">
<path d="M164.304 26.4032C166.369 24.5114 169.481 24.5248 171.456 26.5114C185.619 40.764 215.811 82.753 214.983 139.399C214.978 181.15 172.551 215 120.22 215H119.772C67.4422 214.999 25.0225 181.149 25.0167 139.399C24.1891 82.7542 54.3807 40.7649 68.5441 26.5114C70.5184 24.5264 73.6311 24.5058 75.6956 26.3955C93.0032 42.2545 102.905 64.6739 103.034 64.9652C108.465 64.1929 114.062 63.7903 119.772 63.7901H120.22C125.93 63.7901 131.527 64.193 136.959 64.9652C137.056 64.7442 146.97 42.2875 164.304 26.4032Z" fill="white"/>
</svg>
