<svg width="454" height="451" viewBox="0 0 454 451" fill="none" xmlns="http://www.w3.org/2000/svg">
<g clip-path="url(#clip0_720_23)">
<path fill-rule="evenodd" clip-rule="evenodd" d="M226.979 85.172C226.997 85.1719 227.013 85.1719 227.027 85.172L226.979 85.172Z" fill="white"/>
<path d="M101.259 8.29695C112.102 -2.53731 128.958 -2.54735 140.008 7.03327L140.531 7.49616C170.077 34.3823 190.304 68.8744 199.483 86.4591C208.359 85.6082 217.388 85.171 226.538 85.171L226.879 85.172C226.92 85.1722 226.952 85.1721 226.979 85.172L227.027 85.172L227.471 85.171H227.538C236.686 85.171 245.715 85.6083 254.591 86.4591C263.77 68.8745 283.997 34.3835 313.544 7.49714C324.407 -2.38727 341.264 -2.70241 352.294 7.78913L352.815 8.29695C386.218 41.6773 455.9 137.97 454.036 268.275C453.965 372.766 348.687 451.17 227.538 451.171H227.438L227.008 451.168C226.989 451.168 226.963 451.169 226.928 451.169L226.911 451.169C226.828 451.17 226.689 451.171 226.539 451.171C105.389 451.17 0.109374 372.766 0.0386222 268.275C-1.82551 137.97 67.8567 41.6775 101.259 8.29695ZM226.701 102.171C226.68 102.171 226.658 102.171 226.637 102.171C226.604 102.171 226.57 102.171 226.537 102.171C226.592 102.171 226.647 102.171 226.701 102.171Z" fill="white"/>
</g>
<defs>
<clipPath id="clip0_720_23">
<rect width="454" height="451" fill="white"/>
</clipPath>
</defs>
</svg>
