<svg width="453" height="439" viewBox="0 0 453 439" fill="none" xmlns="http://www.w3.org/2000/svg">
<path d="M324.984 14.0699C329.55 9.91577 336.431 9.95881 340.798 14.3218C372.108 45.612 438.866 137.791 437.036 262.17C437.035 353.849 343.239 428.17 227.536 428.17C227.37 428.17 227.203 428.168 227.037 428.168V428.169C226.871 428.169 226.703 428.171 226.537 428.171C110.834 428.171 17.0379 353.85 17.0369 262.171C15.2069 137.791 81.9645 45.6127 113.275 14.3228C117.641 9.95951 124.523 9.91648 129.089 14.0709C167.497 49.0217 189.412 98.4734 189.535 98.7515C201.545 97.0556 213.911 96.1715 226.537 96.1715C226.703 96.1715 226.87 96.1721 227.036 96.1724C227.202 96.1721 227.37 96.1705 227.536 96.1705C240.162 96.1705 252.527 97.0546 264.538 98.7506C264.678 98.4333 286.59 49.0068 324.984 14.0699ZM143.001 180.001C117.593 180.001 95.7326 196.223 85.9998 219.501C95.7327 242.778 117.593 259 143.001 259.001C168.408 259 190.267 242.777 200 219.501C190.267 196.224 168.408 180.001 143.001 180.001ZM310.916 180.001C285.508 180.001 263.648 196.223 253.915 219.501C263.648 242.778 285.508 259 310.916 259.001C336.323 259 358.182 242.777 367.915 219.501C358.182 196.223 336.323 180.001 310.916 180.001Z" fill="white"/>
</svg>
