<svg width="62" height="67" viewBox="0 0 62 67" fill="none" xmlns="http://www.w3.org/2000/svg">
<g clip-path="url(#clip0_738_12)">
<path d="M46 0C54.8365 0 61.9998 7.16359 62 16V51.0273C62 59.8639 54.8366 67.0273 46 67.0273H16C7.16344 67.0273 8.37954e-07 59.8639 0 51.0273V16C0.000175407 7.16359 7.16355 0 16 0H46ZM25.1436 15.5C23.5014 15.5 22.1816 15.9991 21.1846 16.9961C20.1876 17.9345 19.6895 19.2543 19.6895 20.9551V45.4111C19.6895 47.1119 20.2168 48.4902 21.2725 49.5459C22.3281 50.6016 23.7064 51.1289 25.4072 51.1289H39.3066C40.3622 51.1289 41.2425 50.8072 41.9463 50.1621C42.6501 49.4583 43.002 48.6074 43.002 47.6104C43.0019 46.4962 42.6499 45.6168 41.9463 44.9717C41.3012 44.3265 40.421 44.0039 39.3066 44.0039H29.3662C28.1933 44.0039 27.6065 43.4171 27.6064 42.2441V38.373C27.6065 37.2002 28.1933 36.6143 29.3662 36.6143H37.1074C38.1044 36.6143 38.9554 36.2623 39.6592 35.5586C40.4216 34.8548 40.8027 34.0331 40.8027 33.0947C40.8027 32.0393 40.4799 31.189 39.835 30.5439C39.1898 29.8988 38.2804 29.5762 37.1074 29.5762H29.3662C28.1932 29.5762 27.6064 28.9894 27.6064 27.8164V24.2979C27.6064 23.1249 28.1932 22.5381 29.3662 22.5381H38.4268C39.4824 22.5381 40.3626 22.2154 41.0664 21.5703C41.7701 20.8666 42.122 20.0164 42.1221 19.0195C42.1221 16.6736 40.89 15.5 38.4268 15.5H25.1436Z" fill="white"/>
</g>
<defs>
<clipPath id="clip0_738_12">
<rect width="62" height="67" fill="white"/>
</clipPath>
</defs>
</svg>
