<svg width="147" height="160" viewBox="0 0 147 160" fill="none" xmlns="http://www.w3.org/2000/svg">
<g clip-path="url(#clip0_681_37)">
<path d="M147 160H-1V0H147V160ZM95.46 45C93.2467 45 91.4211 45.6643 89.9824 46.9922C88.6545 48.3201 87.9903 50.0352 87.9902 52.1377V68.0742C87.9902 70.2874 86.8832 71.3936 84.6699 71.3936H62.2598C60.0467 71.3935 58.9405 70.2873 58.9404 68.0742V52.1377C58.9404 50.0353 58.2207 48.3201 56.7822 46.9922C55.4542 45.6642 53.6831 45 51.4697 45C49.3672 45.0001 47.5968 45.6643 46.1582 46.9922C44.7196 48.3201 44.0001 50.0352 44 52.1377V107.748C44 109.74 44.7196 111.4 46.1582 112.728C47.5968 114.055 49.3672 114.72 51.4697 114.72C53.6831 114.72 55.4542 114.111 56.7822 112.894C58.2207 111.566 58.9404 109.851 58.9404 107.748V88.3262C58.9404 86.1129 60.0466 85.0059 62.2598 85.0059H84.6699C86.8833 85.0059 87.9902 86.1128 87.9902 88.3262V107.748C87.9902 109.851 88.7098 111.566 90.1484 112.894C91.5871 114.111 93.3573 114.72 95.46 114.72C97.6733 114.72 99.4445 114.111 100.772 112.894C102.211 111.566 102.93 109.85 102.93 107.748V52.1377C102.93 50.0353 102.211 48.3201 100.772 46.9922C99.4445 45.6642 97.6733 45 95.46 45Z" fill="white"/>
</g>
<defs>
<clipPath id="clip0_681_37">
<rect width="147" height="160" fill="white"/>
</clipPath>
</defs>
</svg>
