<svg width="453" height="453" viewBox="0 0 453 453" fill="none" xmlns="http://www.w3.org/2000/svg">
<path d="M268 62L279.074 105.43L309 121.5L279.074 137.57L268 181L256.926 137.57L227 121.5L256.926 105.43L268 62Z" fill="white"/>
<path d="M98 49L109.074 92.4296L139 108.5L109.074 124.57L98 168L86.9263 124.57L57 108.5L86.9263 92.4296L98 49Z" fill="white"/>
<path d="M355.5 159L364.008 192.211L387 204.5L364.008 216.789L355.5 250L346.992 216.789L324 204.5L346.992 192.211L355.5 159Z" fill="white"/>
<path d="M362 49L368.752 75.6417L387 85.5L368.752 95.3583L362 122L355.248 95.3583L337 85.5L355.248 75.6417L362 49Z" fill="white"/>
<path d="M192 25L198.752 51.6417L217 61.5L198.752 71.3583L192 98L185.248 71.3583L167 61.5L185.248 51.6417L192 25Z" fill="white"/>
<path d="M248.472 368.112C248.472 376.12 241.98 382.612 233.972 382.612H192.531C188.389 382.612 185.031 379.254 185.031 375.112V317.742C185.031 311.391 179.882 306.242 173.531 306.242H159.469C153.117 306.242 147.969 311.391 147.969 317.742V375.112C147.969 379.254 144.611 382.612 140.469 382.612H99.0283C91.0201 382.612 84.5283 376.12 84.5283 368.112V282.785H63.8896C53.5513 282.785 48.4641 270.206 55.8955 263.019L156.898 165.336L157.165 165.085C162.726 159.968 171.3 159.986 176.839 165.128L177.104 165.381L277.204 263.055C284.586 270.257 279.486 282.785 269.173 282.785H248.472V368.112Z" fill="white"/>
</svg>
