<svg width="254" height="247" viewBox="0 0 254 247" fill="none" xmlns="http://www.w3.org/2000/svg">
<g clip-path="url(#clip0_715_7)">
<path d="M218.153 230.82C218.153 239.756 210.931 247 202.023 247H155.923C151.315 247 147.58 243.253 147.58 238.631V174.614C147.58 167.527 141.852 161.781 134.787 161.781H119.143C112.078 161.781 106.35 167.527 106.35 174.614V238.631C106.35 243.253 102.615 247 98.0071 247H51.9075C42.999 247 35.7773 239.756 35.7773 230.82V135.606H12.8182C1.31754 135.606 -4.34166 121.569 3.92524 113.55L116.284 4.54898L116.581 4.26893C122.767 -1.44127 132.305 -1.42056 138.466 4.31687L138.762 4.59911L250.116 113.59C258.327 121.627 252.655 135.606 241.181 135.606H218.153V230.82Z" fill="white"/>
</g>
<defs>
<clipPath id="clip0_715_7">
<rect width="254" height="247" fill="white"/>
</clipPath>
</defs>
</svg>
