<svg width="804" height="350" viewBox="0 0 804 350" fill="none" xmlns="http://www.w3.org/2000/svg">
<g clip-path="url(#clip0_181_207)">
<g filter="url(#filter0_dg_181_207)">
<path d="M574.09 293.074C574.09 300.316 571.365 306.402 565.914 311.33C560.464 316.183 553.408 318.61 544.746 318.61C537.802 318.61 531.456 316.967 525.706 313.682C519.957 310.322 517.082 306.812 517.082 303.154C517.082 301.138 517.754 299.495 519.098 298.226C520.517 296.882 522.234 296.21 524.25 296.21C526.341 296.21 528.357 296.919 530.298 298.338C532.314 299.682 534.48 301.063 536.794 302.482C539.184 303.826 542.058 304.498 545.418 304.498C548.853 304.498 551.84 303.49 554.378 301.474C556.992 299.383 558.298 296.583 558.298 293.074C558.298 289.34 555.088 285.57 548.666 281.762C547.397 281.015 545.306 279.82 542.394 278.178C539.557 276.535 537.392 275.266 535.898 274.37C534.405 273.474 532.426 272.13 529.962 270.338C527.573 268.471 525.744 266.754 524.474 265.186C521.338 261.303 519.77 257.122 519.77 252.642C519.77 246.818 522.272 241.815 527.274 237.634C532.352 233.378 538.288 231.25 545.082 231.25C551.952 231.25 557.813 232.556 562.666 235.17C567.52 237.783 569.946 240.732 569.946 244.018C569.946 246.183 569.274 247.863 567.93 249.058C566.586 250.252 564.906 250.85 562.89 250.85C560.874 250.85 558.261 249.954 555.05 248.162C551.84 246.295 548.816 245.362 545.978 245.362C543.216 245.362 540.789 246.071 538.698 247.49C536.682 248.834 535.674 250.551 535.674 252.642C535.674 254.882 537.093 257.047 539.93 259.138C542.17 260.78 545.082 262.647 548.666 264.738C552.325 266.828 554.938 268.359 556.506 269.33C558.074 270.226 560.165 271.682 562.778 273.698C565.466 275.714 567.482 277.543 568.826 279.186C570.17 280.828 571.365 282.882 572.41 285.346C573.53 287.81 574.09 290.386 574.09 293.074Z" fill="white"/>
<path d="M473.13 277.506C473.13 277.506 473.429 287.063 474.026 306.178C474.026 314.242 471.226 318.274 465.626 318.274C459.354 318.274 456.218 313.532 456.218 304.05C456.218 297.33 457.189 287.212 459.13 273.698C459.13 270.188 458.719 264.85 457.898 257.682C457.077 250.514 456.666 245.287 456.666 242.002C456.666 238.642 457.413 236.103 458.906 234.386C460.4 232.594 462.453 231.698 465.066 231.698C467.754 231.698 469.808 232.706 471.226 234.722C472.72 236.738 473.466 239.538 473.466 243.122C475.781 239.612 478.655 236.775 482.09 234.61C485.599 232.444 489.557 231.362 493.962 231.362C498.367 231.362 501.952 232.482 504.714 234.722C507.477 236.962 508.858 239.426 508.858 242.114C508.858 244.727 508.037 246.855 506.394 248.498C504.751 250.14 502.922 250.962 500.906 250.962C498.89 250.962 496.799 250.103 494.634 248.386C492.543 246.594 491.125 245.698 490.378 245.698C487.765 245.698 484.517 249.282 480.634 256.45C476.751 263.543 474.25 270.562 473.13 277.506Z" fill="white"/>
<path d="M409.802 277.506C409.802 277.506 410.101 287.063 410.698 306.178C410.698 314.242 407.898 318.274 402.298 318.274C396.026 318.274 392.89 313.532 392.89 304.05C392.89 297.33 393.861 287.212 395.802 273.698C395.802 270.188 395.391 264.85 394.57 257.682C393.749 250.514 393.338 245.287 393.338 242.002C393.338 238.642 394.085 236.103 395.578 234.386C397.071 232.594 399.125 231.698 401.738 231.698C404.426 231.698 406.479 232.706 407.898 234.722C409.391 236.738 410.138 239.538 410.138 243.122C412.453 239.612 415.327 236.775 418.762 234.61C422.271 232.444 426.229 231.362 430.634 231.362C435.039 231.362 438.623 232.482 441.386 234.722C444.149 236.962 445.53 239.426 445.53 242.114C445.53 244.727 444.709 246.855 443.066 248.498C441.423 250.14 439.594 250.962 437.578 250.962C435.562 250.962 433.471 250.103 431.306 248.386C429.215 246.594 427.797 245.698 427.05 245.698C424.437 245.698 421.189 249.282 417.306 256.45C413.423 263.543 410.922 270.562 409.802 277.506Z" fill="white"/>
<path d="M354.33 276.722L353.658 243.794C353.658 235.73 356.458 231.698 362.058 231.698C368.33 231.698 371.466 236.439 371.466 245.922C371.466 253.388 370.495 263.506 368.554 276.274C368.554 280.306 368.964 285.495 369.786 291.842C370.607 298.188 371.727 301.847 373.146 302.818C374.49 303.714 375.46 304.274 376.058 304.498C376.655 304.722 377.066 304.908 377.29 305.058C377.663 305.431 377.85 306.178 377.85 307.298C377.85 310.135 376.879 312.636 374.938 314.802C372.996 316.967 370.458 318.05 367.322 318.05C364.26 318.05 361.722 316.743 359.706 314.13C357.69 311.442 356.308 308.044 355.562 303.938C353.172 307.82 349.7 311.143 345.146 313.906C340.591 316.594 335.663 317.938 330.362 317.938C321.551 317.938 314.719 315.026 309.866 309.202C305.012 303.303 302.586 296.135 302.586 287.698L303.258 259.138C303.258 256.076 302.847 252.791 302.026 249.282C301.279 245.698 300.906 242.711 300.906 240.322C300.906 237.858 301.727 235.842 303.37 234.274C305.087 232.631 307.29 231.81 309.978 231.81C316.175 231.81 319.274 236.514 319.274 245.922L318.49 280.754C318.49 287.623 319.61 293.148 321.85 297.33C324.09 301.511 327.375 303.602 331.706 303.602C336.036 303.602 340.442 300.914 344.922 295.538C349.402 290.087 352.538 283.815 354.33 276.722Z" fill="white"/>
<path d="M230.096 305.954L230.992 275.49C230.992 272.055 230.731 263.804 230.208 250.738C227.52 249.244 226.176 246.855 226.176 243.57C226.176 241.255 227.296 239.239 229.536 237.522C231.776 235.804 234.576 234.498 237.936 233.602C244.208 232.034 250.032 231.25 255.408 231.25C266.982 231.25 275.792 234.012 281.84 239.538C287.888 244.988 290.912 251.671 290.912 259.586C290.912 267.5 287.888 274.22 281.84 279.746C275.867 285.271 268.139 288.034 258.656 288.034C252.982 288.034 248.912 287.884 246.448 287.586L247.12 305.954C247.12 314.018 244.283 318.05 238.608 318.05C232.934 318.05 230.096 314.018 230.096 305.954ZM246.224 272.802C250.63 273.623 254.923 274.034 259.104 274.034C263.36 274.034 267.056 272.727 270.192 270.114C273.403 267.426 275.008 263.991 275.008 259.81C275.008 255.554 273.328 252.119 269.968 249.506C266.608 246.818 261.942 245.474 255.968 245.474C252.683 245.474 249.622 245.922 246.784 246.818C246.411 256.002 246.224 264.663 246.224 272.802Z" fill="white"/>
<path d="M666.239 189.074C666.239 196.316 663.513 202.402 658.063 207.33C652.612 212.183 645.556 214.61 636.895 214.61C629.951 214.61 623.604 212.967 617.855 209.682C612.105 206.322 609.231 202.812 609.231 199.154C609.231 197.138 609.903 195.495 611.247 194.226C612.665 192.882 614.383 192.21 616.399 192.21C618.489 192.21 620.505 192.919 622.447 194.338C624.463 195.682 626.628 197.063 628.943 198.482C631.332 199.826 634.207 200.498 637.567 200.498C641.001 200.498 643.988 199.49 646.527 197.474C649.14 195.383 650.447 192.583 650.447 189.074C650.447 185.34 647.236 181.57 640.815 177.762C639.545 177.015 637.455 175.82 634.543 174.178C631.705 172.535 629.54 171.266 628.047 170.37C626.553 169.474 624.575 168.13 622.111 166.338C619.721 164.471 617.892 162.754 616.623 161.186C613.487 157.303 611.919 153.122 611.919 148.642C611.919 142.818 614.42 137.815 619.423 133.634C624.5 129.378 630.436 127.25 637.231 127.25C644.1 127.25 649.961 128.556 654.815 131.17C659.668 133.783 662.095 136.732 662.095 140.018C662.095 142.183 661.423 143.863 660.079 145.058C658.735 146.252 657.055 146.85 655.039 146.85C653.023 146.85 650.409 145.954 647.199 144.162C643.988 142.295 640.964 141.362 638.127 141.362C635.364 141.362 632.937 142.071 630.847 143.49C628.831 144.834 627.823 146.551 627.823 148.642C627.823 150.882 629.241 153.047 632.079 155.138C634.319 156.78 637.231 158.647 640.815 160.738C644.473 162.828 647.087 164.359 648.655 165.33C650.223 166.226 652.313 167.682 654.927 169.698C657.615 171.714 659.631 173.543 660.975 175.186C662.319 176.828 663.513 178.882 664.559 181.346C665.679 183.81 666.239 186.386 666.239 189.074Z" fill="white"/>
<path d="M598.098 189.074C598.098 196.316 595.373 202.402 589.922 207.33C584.471 212.183 577.415 214.61 568.754 214.61C561.81 214.61 555.463 212.967 549.714 209.682C543.965 206.322 541.09 202.812 541.09 199.154C541.09 197.138 541.762 195.495 543.106 194.226C544.525 192.882 546.242 192.21 548.258 192.21C550.349 192.21 552.365 192.919 554.306 194.338C556.322 195.682 558.487 197.063 560.802 198.482C563.191 199.826 566.066 200.498 569.426 200.498C572.861 200.498 575.847 199.49 578.386 197.474C580.999 195.383 582.306 192.583 582.306 189.074C582.306 185.34 579.095 181.57 572.674 177.762C571.405 177.015 569.314 175.82 566.402 174.178C563.565 172.535 561.399 171.266 559.906 170.37C558.413 169.474 556.434 168.13 553.97 166.338C551.581 164.471 549.751 162.754 548.482 161.186C545.346 157.303 543.778 153.122 543.778 148.642C543.778 142.818 546.279 137.815 551.282 133.634C556.359 129.378 562.295 127.25 569.09 127.25C575.959 127.25 581.821 128.556 586.674 131.17C591.527 133.783 593.954 136.732 593.954 140.018C593.954 142.183 593.282 143.863 591.938 145.058C590.594 146.252 588.914 146.85 586.898 146.85C584.882 146.85 582.269 145.954 579.058 144.162C575.847 142.295 572.823 141.362 569.986 141.362C567.223 141.362 564.797 142.071 562.706 143.49C560.69 144.834 559.682 146.551 559.682 148.642C559.682 150.882 561.101 153.047 563.938 155.138C566.178 156.78 569.09 158.647 572.674 160.738C576.333 162.828 578.946 164.359 580.514 165.33C582.082 166.226 584.173 167.682 586.786 169.698C589.474 171.714 591.49 173.543 592.834 175.186C594.178 176.828 595.373 178.882 596.418 181.346C597.538 183.81 598.098 186.386 598.098 189.074Z" fill="white"/>
<path d="M514.754 152.226C514.754 149.538 513.672 147.074 511.506 144.834C509.341 142.594 506.242 141.474 502.21 141.474C496.909 141.474 492.392 143.714 488.658 148.194C485 152.674 482.424 158.05 480.93 164.322C485.41 165.367 490.413 165.89 495.938 165.89C501.538 165.89 506.056 164.695 509.49 162.306C513 159.916 514.754 156.556 514.754 152.226ZM528.082 199.378C528.082 202.29 525.32 205.575 519.794 209.234C514.269 212.818 508.37 214.61 502.098 214.61C495.826 214.61 490.413 213.527 485.858 211.362C481.378 209.122 477.682 206.135 474.77 202.402C468.648 194.711 465.213 185.639 464.466 175.186C459.389 173.17 456.85 170.071 456.85 165.89C456.85 163.799 457.522 162.119 458.866 160.85C460.285 159.506 462.002 158.834 464.018 158.834C464.616 158.834 465.288 158.946 466.034 159.17C468.648 149.911 473.09 142.295 479.362 136.322C485.634 130.274 492.952 127.25 501.314 127.25C509.752 127.25 516.733 129.676 522.258 134.53C527.858 139.308 530.658 145.058 530.658 151.778C530.658 158.423 528.978 163.874 525.618 168.13C519.272 175.895 509.453 179.778 496.162 179.778C491.757 179.778 486.642 179.292 480.818 178.322C481.938 184.594 484.29 189.858 487.874 194.114C491.458 198.37 495.565 200.498 500.194 200.498C505.346 200.498 510.834 198.743 516.658 195.234C518.6 194.039 520.392 193.442 522.034 193.442C523.677 193.442 525.096 194.002 526.29 195.122C527.485 196.242 528.082 197.66 528.082 199.378Z" fill="white"/>
<path d="M423.729 199.266L439.073 198.594C441.91 198.594 444.15 199.266 445.793 200.61C447.51 201.879 448.369 203.671 448.369 205.986C448.369 208.3 447.51 210.167 445.793 211.586C444.15 212.93 441.91 213.602 439.073 213.602L423.729 212.93L406.817 213.602C404.054 213.602 401.74 212.706 399.873 210.914C398.081 209.122 397.185 206.732 397.185 203.746L397.857 170.37L396.961 140.018C396.961 131.879 399.798 127.81 405.473 127.81C411.148 127.81 413.985 131.879 413.985 140.018L413.089 170.37C413.089 174.178 413.35 183.735 413.873 199.042C417.756 199.191 421.041 199.266 423.729 199.266Z" fill="white"/>
<path d="M311.573 170.93L311.013 145.394C307.952 144.498 306.421 142.37 306.421 139.01C306.421 136.77 308.027 134.716 311.237 132.85C314.523 130.983 318.256 129.639 322.437 128.818C326.619 127.922 330.576 127.474 334.309 127.474C341.627 127.474 348.16 128.706 353.909 131.17C359.733 133.634 364.4 136.919 367.909 141.026C375.003 149.463 378.549 159.543 378.549 171.266C378.549 182.54 375.115 192.396 368.245 200.834C364.885 205.015 360.368 208.375 354.693 210.914C349.093 213.378 342.411 214.61 334.645 214.61C326.88 214.61 320.16 213.49 314.485 211.25C308.811 209.01 305.973 206.21 305.973 202.85C305.973 199.49 307.728 197.399 311.237 196.578L311.573 170.93ZM362.757 170.818C362.757 162.754 360.293 155.847 355.365 150.098C350.512 144.348 343.493 141.474 334.309 141.474C331.771 141.474 329.381 141.81 327.141 142.482C326.917 147.036 326.805 156.37 326.805 170.482C326.805 184.594 326.955 194.338 327.253 199.714C329.643 200.236 332.331 200.498 335.317 200.498C341.365 200.498 346.517 199.042 350.773 196.13C358.763 190.53 362.757 182.092 362.757 170.818Z" fill="white"/>
<path d="M270.908 195.01L271.468 164.994C271.468 158.124 270.348 152.599 268.108 148.418C265.868 144.236 262.582 142.146 258.252 142.146C253.921 142.146 249.516 144.871 245.036 150.322C240.556 155.698 237.42 161.932 235.628 169.026L236.3 201.954C236.3 210.018 233.5 214.05 227.9 214.05C221.628 214.05 218.492 209.308 218.492 199.826C218.492 192.359 219.462 182.242 221.404 169.474C221.404 165.964 220.993 160.626 220.172 153.458C219.35 146.29 218.94 141.063 218.94 137.778C218.94 134.418 219.686 131.879 221.18 130.162C222.673 128.37 224.764 127.474 227.452 127.474C232.902 127.474 235.628 131.692 235.628 140.13C242.124 131.916 249.926 127.81 259.036 127.81C268.22 127.81 275.238 130.759 280.092 136.658C284.945 142.482 287.372 149.612 287.372 158.05L286.7 186.61C286.7 193.703 287.148 197.698 288.044 198.594C288.566 199.116 289.35 199.49 290.396 199.714C291.441 199.938 292.3 200.274 292.972 200.722C293.644 201.17 293.98 201.954 293.98 203.074C293.98 206.21 292.897 208.86 290.732 211.026C288.641 213.191 286.177 214.274 283.34 214.274C278.636 214.274 275.388 212.668 273.596 209.458C271.804 206.172 270.908 201.356 270.908 195.01Z" fill="white"/>
<path d="M189.692 152.226C189.692 149.538 188.609 147.074 186.444 144.834C184.279 142.594 181.18 141.474 177.148 141.474C171.847 141.474 167.329 143.714 163.596 148.194C159.937 152.674 157.361 158.05 155.868 164.322C160.348 165.367 165.351 165.89 170.876 165.89C176.476 165.89 180.993 164.695 184.428 162.306C187.937 159.916 189.692 156.556 189.692 152.226ZM203.02 199.378C203.02 202.29 200.257 205.575 194.732 209.234C189.207 212.818 183.308 214.61 177.036 214.61C170.764 214.61 165.351 213.527 160.796 211.362C156.316 209.122 152.62 206.135 149.708 202.402C143.585 194.711 140.151 185.639 139.404 175.186C134.327 173.17 131.788 170.071 131.788 165.89C131.788 163.799 132.46 162.119 133.804 160.85C135.223 159.506 136.94 158.834 138.956 158.834C139.553 158.834 140.225 158.946 140.972 159.17C143.585 149.911 148.028 142.295 154.3 136.322C160.572 130.274 167.889 127.25 176.252 127.25C184.689 127.25 191.671 129.676 197.196 134.53C202.796 139.308 205.596 145.058 205.596 151.778C205.596 158.423 203.916 163.874 200.556 168.13C194.209 175.895 184.391 179.778 171.1 179.778C166.695 179.778 161.58 179.292 155.756 178.322C156.876 184.594 159.228 189.858 162.812 194.114C166.396 198.37 170.503 200.498 175.132 200.498C180.284 200.498 185.772 198.743 191.596 195.234C193.537 194.039 195.329 193.442 196.972 193.442C198.615 193.442 200.033 194.002 201.228 195.122C202.423 196.242 203.02 197.66 203.02 199.378Z" fill="white"/>
<path d="M683.961 18.7656L676.64 24C683.961 18.7654 683.962 18.7666 683.962 18.7666L683.963 18.7695C683.964 18.7715 683.966 18.774 683.969 18.7773C683.974 18.7841 683.981 18.7935 683.989 18.8057C684.007 18.8303 684.032 18.8666 684.065 18.9131C684.132 19.0061 684.229 19.1421 684.354 19.3193C684.606 19.6738 684.973 20.1926 685.44 20.8584C686.376 22.1897 687.716 24.1099 689.347 26.4814C692.605 31.2212 697.034 37.7814 701.71 45.0537C710.845 59.263 721.642 77.2784 725.848 89.5742C729.97 101.625 733.153 113.383 734.855 125.677L773.443 98.3223C777.498 95.4477 783.116 96.4051 785.99 100.46C788.865 104.515 787.908 110.132 783.854 113.007L743.87 141.352H775.54C780.51 141.352 784.54 145.381 784.54 150.352C784.54 155.322 780.51 159.351 775.54 159.352H741.013L783.823 189.434C787.89 192.291 788.869 197.905 786.012 201.972C783.154 206.039 777.541 207.019 773.474 204.161L732.996 175.718C731.2 183.558 728.736 190.822 725.962 197.138C721.671 206.906 716.143 215.541 710.296 220.113C706.38 223.175 700.724 222.483 697.662 218.567C694.601 214.652 695.293 208.995 699.208 205.934C701.537 204.113 705.593 198.752 709.481 189.899C713.221 181.385 716.347 170.669 717.522 159.218C718.121 153.389 718.33 147.812 718.193 142.39C718.193 142.37 718.193 142.35 718.192 142.33C717.779 126.19 714.293 111.41 708.816 95.3994C705.431 85.5022 695.881 69.2737 686.568 54.7881C683.875 50.5993 681.262 46.6474 678.917 43.1582C677.071 47.6595 674.892 52.7333 672.495 57.8516C668.869 65.5939 664.6 73.7579 660.096 80.2383C657.85 83.4693 655.352 86.5677 652.632 89.0234C650.038 91.3652 646.406 93.8888 641.894 94.4824C638.07 94.9854 635.848 95.3539 633.462 95.6865C631.331 95.9835 629.147 96.2409 626.839 96.1299C622.256 95.9093 618.064 94.1868 612.222 92.001C608.618 90.6525 605.716 88.0345 603.572 85.7031C601.291 83.222 599.113 80.221 597.089 77.0771C593.034 70.7775 589.072 63.0746 585.644 55.7881C583.039 50.2527 580.681 44.824 578.756 40.2168C578.656 40.3221 578.555 40.4279 578.454 40.5342C572.867 46.4165 566.315 53.5598 561.882 59.1426C553.039 70.2779 548.426 80.2969 542.796 90.0566C540.312 94.362 534.808 95.839 530.503 93.3555C526.197 90.8717 524.72 85.367 527.204 81.0615C532.013 72.726 537.839 60.4756 547.786 47.9492C552.748 41.7012 559.767 34.0716 565.402 28.1387C568.248 25.1421 570.795 22.5219 572.631 20.6504C573.549 19.7141 574.292 18.9638 574.807 18.4453C575.064 18.1861 575.264 17.9843 575.401 17.8467C575.47 17.7778 575.523 17.7248 575.56 17.6885C575.578 17.6705 575.591 17.6562 575.601 17.6465C575.605 17.6418 575.61 17.6385 575.612 17.6357L585.525 7.74023L590.41 20.8594L590.412 20.8643C590.414 20.8689 590.417 20.877 590.421 20.8877C590.429 20.9099 590.442 20.9449 590.46 20.9922C590.496 21.0874 590.55 21.2329 590.623 21.4248C590.769 21.8088 590.986 22.3799 591.27 23.1123C591.836 24.5777 592.665 26.6866 593.7 29.2363C595.775 34.3468 598.662 41.1772 601.931 48.125C605.223 55.1215 608.795 62.0068 612.225 67.334C613.943 70.0036 615.495 72.0759 616.822 73.5195C618.1 74.9095 618.71 75.207 618.616 75.1748C625.731 77.8362 626.655 78.0999 627.703 78.1504C628.213 78.1749 628.977 78.1381 630.977 77.8594C632.672 77.6231 635.641 77.1553 639.229 76.6787C639.387 76.5926 639.831 76.3293 640.569 75.6631C641.879 74.4806 643.485 72.599 645.315 69.9658C648.963 64.7175 652.729 57.6157 656.194 50.2168C659.627 42.8868 662.622 35.5764 664.766 30.0732C665.834 27.3289 666.685 25.0506 667.266 23.4658C667.556 22.6739 667.778 22.056 667.927 21.6406C668.001 21.433 668.057 21.2755 668.094 21.1729C668.112 21.1219 668.125 21.0842 668.133 21.0605C668.137 21.0487 668.14 21.04 668.142 21.0352C668.142 21.0331 668.144 21.0312 668.144 21.0312L673.867 4.64844L683.961 18.7656Z" fill="white"/>
</g>
</g>
<defs>
<filter id="filter0_dg_181_207" x="126.788" y="-0.351562" width="674.861" height="330.961" filterUnits="userSpaceOnUse" color-interpolation-filters="sRGB">
<feFlood flood-opacity="0" result="BackgroundImageFix"/>
<feColorMatrix in="SourceAlpha" type="matrix" values="0 0 0 0 0 0 0 0 0 0 0 0 0 0 0 0 0 0 127 0" result="hardAlpha"/>
<feOffset dx="10" dy="8"/>
<feGaussianBlur stdDeviation="2"/>
<feComposite in2="hardAlpha" operator="out"/>
<feColorMatrix type="matrix" values="0 0 0 0 0 0 0 0 0 0 0 0 0 0 0 0 0 0 0.69 0"/>
<feBlend mode="normal" in2="BackgroundImageFix" result="effect1_dropShadow_181_207"/>
<feBlend mode="normal" in="SourceGraphic" in2="effect1_dropShadow_181_207" result="shape"/>
<feTurbulence type="fractalNoise" baseFrequency="0.76923078298568726 0.76923078298568726" numOctaves="3" seed="7916" />
<feDisplacementMap in="shape" scale="10" xChannelSelector="R" yChannelSelector="G" result="displacedImage" width="100%" height="100%" />
<feMerge result="effect2_texture_181_207">
<feMergeNode in="displacedImage"/>
</feMerge>
</filter>
<clipPath id="clip0_181_207">
<rect width="804" height="350" fill="white"/>
</clipPath>
</defs>
</svg>
