<svg width="256" height="256" viewBox="0 0 256 256" fill="none" xmlns="http://www.w3.org/2000/svg">
<g clip-path="url(#clip0_726_47)">
<path d="M158.51 240.932C180.149 242.642 195.589 232.468 197.66 219.366C199.73 206.264 189.794 187.625 164.15 182.501C139.302 177.537 120.235 185.822 115.542 201.765C109.662 221.739 134.487 239.034 158.51 240.932Z" fill="white"/>
<path d="M33.4122 179.267C34.8942 168.304 36.1113 158.318 33.4128 149.596C30.7142 140.874 24.821 136.965 17.0447 128.349C7.24272 117.489 2.89712 104.338 4.65003 94.7105C7.19229 80.7473 33.3896 48.5411 82.7365 77.4609C107.995 92.2635 124.921 107.13 130.463 127.569C136.005 148.007 116.66 188.626 103.511 202.579C84.0602 223.218 54.5021 230.612 42.0017 221.561C24.7577 209.076 31.9301 190.23 33.4122 179.267Z" fill="white"/>
<path d="M251.81 156.697C252.184 178.409 222.613 184.13 202.446 185.265C179.071 186.581 158.556 165.101 158.774 150.558C158.998 135.679 185.951 117.741 206.615 119.055C223.992 120.161 251.379 131.751 251.81 156.697Z" fill="white"/>
<path d="M209.684 102.207C236.362 85.1982 239.613 70.167 230.485 56.2604C225.115 48.0794 202.225 33.5226 175.752 46.9773C156.002 57.015 138.253 86.5802 152.662 102.197C163.361 113.793 191.606 113.732 209.684 102.207Z" fill="white"/>
<path d="M126.541 67.1668C152.871 57.5775 156.076 35.9799 149.84 22.1059C145.067 11.4879 118.286 5.97793 104.728 12.2617C85.3628 21.2367 75.4531 55.2905 84.3014 64.6193C88.8943 69.4617 98.915 77.2277 126.541 67.1668Z" fill="white"/>
</g>
<defs>
<clipPath id="clip0_726_47">
<rect width="256" height="256" fill="white"/>
</clipPath>
</defs>
</svg>
