<svg width="148" height="160" viewBox="0 0 148 160" fill="none" xmlns="http://www.w3.org/2000/svg">
<g clip-path="url(#clip0_681_36)">
<path d="M148 160H0V0H148V160ZM74.6943 42C68.0543 42 62.133 43.5498 56.9316 46.6484C51.7307 49.6363 47.581 53.786 44.4824 59.0977C41.4944 64.299 40 70.2757 40 77.0264C40.0001 83.5556 41.4945 89.5315 44.4824 94.9541C47.5811 100.377 51.7304 104.693 56.9316 107.902C62.2436 111.001 68.165 112.55 74.6943 112.55C80.0061 112.55 84.9306 111.444 89.4678 109.23L95.4443 115.538C96.7722 116.866 98.3213 117.53 100.092 117.53C102.305 117.53 104.298 116.645 106.068 114.874C107.286 113.657 107.894 111.996 107.894 109.894C107.893 108.012 107.009 106.186 105.238 104.416L100.756 100.266C103.301 97.167 105.294 93.6809 106.732 89.8076C108.171 85.8239 108.89 81.5634 108.89 77.0264C108.89 70.2757 107.396 64.299 104.408 59.0977C101.531 53.7858 97.4912 49.6364 92.29 46.6484C87.1995 43.5498 81.3342 42.0001 74.6943 42ZM74.6943 55.1143C80.3381 55.1143 84.9304 57.1614 88.4717 61.2559C92.1237 65.3505 93.9502 70.6077 93.9502 77.0264C93.9501 82.0061 92.8431 86.3771 90.6299 90.1396L86.1484 85.1602C84.8204 83.8322 83.16 83.168 81.168 83.168C78.9547 83.168 77.0737 83.9429 75.5244 85.4922C74.3072 86.7095 73.6983 88.3138 73.6982 90.3057C73.6982 92.6296 74.583 94.5669 76.3535 96.1162L79.1758 98.7725C77.7373 99.1044 76.2434 99.2695 74.6943 99.2695C68.9397 99.2695 64.1806 97.1672 60.418 92.9619C56.7661 88.7567 54.9405 83.4448 54.9404 77.0264C54.9404 70.6077 56.766 65.3505 60.418 61.2559C64.1806 57.1612 68.9397 55.1143 74.6943 55.1143Z" fill="white"/>
</g>
<defs>
<clipPath id="clip0_681_36">
<rect width="148" height="160" fill="white"/>
</clipPath>
</defs>
</svg>
