<svg width="62" height="67" viewBox="0 0 62 67" fill="none" xmlns="http://www.w3.org/2000/svg">
<g clip-path="url(#clip0_738_13)">
<path d="M46 0C54.8366 0 62 7.16344 62 16V51.0273C61.9998 59.8637 54.8364 67.0273 46 67.0273H16C7.16355 67.0273 0.000172016 59.8638 0 51.0273V16C4.22975e-06 7.16345 7.16345 0 16 0H46ZM30.9541 13.4053C27.4353 13.4053 24.2974 14.2261 21.541 15.8682C18.7845 17.4517 16.5845 19.6517 14.9424 22.4668C13.359 25.2232 12.5674 28.3903 12.5674 31.9678C12.5674 35.4279 13.359 38.595 14.9424 41.4688C16.5845 44.3425 18.7845 46.6302 21.541 48.3311C24.3561 49.9731 27.494 50.7939 30.9541 50.7939C33.7691 50.7939 36.3787 50.2071 38.7832 49.0342L41.9502 52.377C42.654 53.0807 43.4757 53.4336 44.4141 53.4336C45.5869 53.4335 46.6427 52.9637 47.5811 52.0254C48.226 51.3803 48.5488 50.5008 48.5488 49.3867C48.5488 48.3897 48.079 47.4218 47.1406 46.4834L44.7656 44.2842C46.1145 42.642 47.1702 40.7939 47.9326 38.7412C48.695 36.63 49.0762 34.3722 49.0762 31.9678C49.0762 28.3903 48.2846 25.2232 46.7012 22.4668C45.1763 19.6517 43.0358 17.4517 40.2793 15.8682C37.5815 14.226 34.4729 13.4053 30.9541 13.4053ZM30.9541 20.3555C33.9451 20.3555 36.3791 21.4404 38.2559 23.6104C40.1912 25.7803 41.1592 28.5662 41.1592 31.9678C41.1592 34.6069 40.5724 36.9239 39.3994 38.918L37.0244 36.2783C36.3206 35.5745 35.4404 35.2227 34.3848 35.2227C33.2118 35.2227 32.2146 35.633 31.3936 36.4541C30.7484 37.0992 30.4258 37.9502 30.4258 39.0059C30.4259 40.2373 30.8957 41.264 31.834 42.085L33.3291 43.4922C32.5668 43.6681 31.7751 43.7558 30.9541 43.7559C27.9045 43.7559 25.3827 42.6416 23.3887 40.4131C21.4533 38.1845 20.4854 35.3694 20.4854 31.9678C20.4854 28.5662 21.4533 25.7804 23.3887 23.6104C25.3827 21.4405 27.9045 20.3555 30.9541 20.3555Z" fill="white"/>
</g>
<defs>
<clipPath id="clip0_738_13">
<rect width="62" height="67" fill="white"/>
</clipPath>
</defs>
</svg>
